<?xml version="1.0" encoding="utf-8" standalone="no"?>
<!DOCTYPE svg PUBLIC "-//W3C//DTD SVG 1.1//EN"
  "http://www.w3.org/Graphics/SVG/1.1/DTD/svg11.dtd">
<svg xmlns:xlink="http://www.w3.org/1999/xlink" width="1127.613047pt" height="408.322266pt" viewBox="0 0 1127.613047 408.322266" xmlns="http://www.w3.org/2000/svg" version="1.1">
 <metadata>
  <rdf:RDF xmlns:dc="http://purl.org/dc/elements/1.1/" xmlns:cc="http://creativecommons.org/ns#" xmlns:rdf="http://www.w3.org/1999/02/22-rdf-syntax-ns#">
   <cc:Work>
    <dc:type rdf:resource="http://purl.org/dc/dcmitype/StillImage"/>
    <dc:date>2023-05-10T14:24:22.217175</dc:date>
    <dc:format>image/svg+xml</dc:format>
    <dc:creator>
     <cc:Agent>
      <dc:title>Matplotlib v3.5.1, https://matplotlib.org/</dc:title>
     </cc:Agent>
    </dc:creator>
   </cc:Work>
  </rdf:RDF>
 </metadata>
 <defs>
  <style type="text/css">*{stroke-linejoin: round; stroke-linecap: butt}</style>
 </defs>
 <g id="figure_1">
  <g id="patch_1">
   <path d="M 0 408.322266 
L 1127.613047 408.322266 
L 1127.613047 0 
L 0 0 
z
" style="fill: #ffffff"/>
  </g>
  <g id="axes_1">
   <g id="patch_2">
    <path d="M 74.483047 350.86 
L 554.133047 350.86 
L 554.133047 7.2 
L 74.483047 7.2 
z
" style="fill: #ffffff"/>
   </g>
   <g id="matplotlib.axis_1">
    <g id="xtick_1">
     <g id="line2d_1">
      <defs>
       <path id="m00fd77e4b7" d="M 0 0 
L 0 6 
" style="stroke: #262626; stroke-width: 1.25"/>
      </defs>
      <g>
       <use xlink:href="#m00fd77e4b7" x="137.58836" y="355.86" style="fill: #262626; stroke: #262626; stroke-width: 1.25"/>
      </g>
     </g>
     <g id="text_1">
      <!-- 50 -->
      <g style="fill: #262626" transform="translate(128.412813 377.170391)scale(0.165 -0.165)">
       <defs>
        <path id="ArialMT-35" d="M 266 1200 
L 856 1250 
Q 922 819 1161 601 
Q 1400 384 1738 384 
Q 2144 384 2425 690 
Q 2706 997 2706 1503 
Q 2706 1984 2436 2262 
Q 2166 2541 1728 2541 
Q 1456 2541 1237 2417 
Q 1019 2294 894 2097 
L 366 2166 
L 809 4519 
L 3088 4519 
L 3088 3981 
L 1259 3981 
L 1013 2750 
Q 1425 3038 1878 3038 
Q 2478 3038 2890 2622 
Q 3303 2206 3303 1553 
Q 3303 931 2941 478 
Q 2500 -78 1738 -78 
Q 1113 -78 717 272 
Q 322 622 266 1200 
z
" transform="scale(0.015625)"/>
        <path id="ArialMT-30" d="M 266 2259 
Q 266 3072 433 3567 
Q 600 4063 929 4331 
Q 1259 4600 1759 4600 
Q 2128 4600 2406 4451 
Q 2684 4303 2865 4023 
Q 3047 3744 3150 3342 
Q 3253 2941 3253 2259 
Q 3253 1453 3087 958 
Q 2922 463 2592 192 
Q 2263 -78 1759 -78 
Q 1097 -78 719 397 
Q 266 969 266 2259 
z
M 844 2259 
Q 844 1131 1108 757 
Q 1372 384 1759 384 
Q 2147 384 2411 759 
Q 2675 1134 2675 2259 
Q 2675 3391 2411 3762 
Q 2147 4134 1753 4134 
Q 1366 4134 1134 3806 
Q 844 3388 844 2259 
z
" transform="scale(0.015625)"/>
       </defs>
       <use xlink:href="#ArialMT-35"/>
       <use xlink:href="#ArialMT-30" x="55.615234"/>
      </g>
     </g>
    </g>
    <g id="xtick_2">
     <g id="line2d_2">
      <g>
       <use xlink:href="#m00fd77e4b7" x="233.681746" y="355.86" style="fill: #262626; stroke: #262626; stroke-width: 1.25"/>
      </g>
     </g>
     <g id="text_2">
      <!-- 60 -->
      <g style="fill: #262626" transform="translate(224.506199 377.170391)scale(0.165 -0.165)">
       <defs>
        <path id="ArialMT-36" d="M 3184 3459 
L 2625 3416 
Q 2550 3747 2413 3897 
Q 2184 4138 1850 4138 
Q 1581 4138 1378 3988 
Q 1113 3794 959 3422 
Q 806 3050 800 2363 
Q 1003 2672 1297 2822 
Q 1591 2972 1913 2972 
Q 2475 2972 2870 2558 
Q 3266 2144 3266 1488 
Q 3266 1056 3080 686 
Q 2894 316 2569 119 
Q 2244 -78 1831 -78 
Q 1128 -78 684 439 
Q 241 956 241 2144 
Q 241 3472 731 4075 
Q 1159 4600 1884 4600 
Q 2425 4600 2770 4297 
Q 3116 3994 3184 3459 
z
M 888 1484 
Q 888 1194 1011 928 
Q 1134 663 1356 523 
Q 1578 384 1822 384 
Q 2178 384 2434 671 
Q 2691 959 2691 1453 
Q 2691 1928 2437 2201 
Q 2184 2475 1800 2475 
Q 1419 2475 1153 2201 
Q 888 1928 888 1484 
z
" transform="scale(0.015625)"/>
       </defs>
       <use xlink:href="#ArialMT-36"/>
       <use xlink:href="#ArialMT-30" x="55.615234"/>
      </g>
     </g>
    </g>
    <g id="xtick_3">
     <g id="line2d_3">
      <g>
       <use xlink:href="#m00fd77e4b7" x="329.775133" y="355.86" style="fill: #262626; stroke: #262626; stroke-width: 1.25"/>
      </g>
     </g>
     <g id="text_3">
      <!-- 70 -->
      <g style="fill: #262626" transform="translate(320.599586 377.170391)scale(0.165 -0.165)">
       <defs>
        <path id="ArialMT-37" d="M 303 3981 
L 303 4522 
L 3269 4522 
L 3269 4084 
Q 2831 3619 2401 2847 
Q 1972 2075 1738 1259 
Q 1569 684 1522 0 
L 944 0 
Q 953 541 1156 1306 
Q 1359 2072 1739 2783 
Q 2119 3494 2547 3981 
L 303 3981 
z
" transform="scale(0.015625)"/>
       </defs>
       <use xlink:href="#ArialMT-37"/>
       <use xlink:href="#ArialMT-30" x="55.615234"/>
      </g>
     </g>
    </g>
    <g id="xtick_4">
     <g id="line2d_4">
      <g>
       <use xlink:href="#m00fd77e4b7" x="425.86852" y="355.86" style="fill: #262626; stroke: #262626; stroke-width: 1.25"/>
      </g>
     </g>
     <g id="text_4">
      <!-- 80 -->
      <g style="fill: #262626" transform="translate(416.692973 377.170391)scale(0.165 -0.165)">
       <defs>
        <path id="ArialMT-38" d="M 1131 2484 
Q 781 2613 612 2850 
Q 444 3088 444 3419 
Q 444 3919 803 4259 
Q 1163 4600 1759 4600 
Q 2359 4600 2725 4251 
Q 3091 3903 3091 3403 
Q 3091 3084 2923 2848 
Q 2756 2613 2416 2484 
Q 2838 2347 3058 2040 
Q 3278 1734 3278 1309 
Q 3278 722 2862 322 
Q 2447 -78 1769 -78 
Q 1091 -78 675 323 
Q 259 725 259 1325 
Q 259 1772 486 2073 
Q 713 2375 1131 2484 
z
M 1019 3438 
Q 1019 3113 1228 2906 
Q 1438 2700 1772 2700 
Q 2097 2700 2305 2904 
Q 2513 3109 2513 3406 
Q 2513 3716 2298 3927 
Q 2084 4138 1766 4138 
Q 1444 4138 1231 3931 
Q 1019 3725 1019 3438 
z
M 838 1322 
Q 838 1081 952 856 
Q 1066 631 1291 507 
Q 1516 384 1775 384 
Q 2178 384 2440 643 
Q 2703 903 2703 1303 
Q 2703 1709 2433 1975 
Q 2163 2241 1756 2241 
Q 1359 2241 1098 1978 
Q 838 1716 838 1322 
z
" transform="scale(0.015625)"/>
       </defs>
       <use xlink:href="#ArialMT-38"/>
       <use xlink:href="#ArialMT-30" x="55.615234"/>
      </g>
     </g>
    </g>
    <g id="xtick_5">
     <g id="line2d_5">
      <g>
       <use xlink:href="#m00fd77e4b7" x="521.961907" y="355.86" style="fill: #262626; stroke: #262626; stroke-width: 1.25"/>
      </g>
     </g>
     <g id="text_5">
      <!-- 90 -->
      <g style="fill: #262626" transform="translate(512.78636 377.170391)scale(0.165 -0.165)">
       <defs>
        <path id="ArialMT-39" d="M 350 1059 
L 891 1109 
Q 959 728 1153 556 
Q 1347 384 1650 384 
Q 1909 384 2104 503 
Q 2300 622 2425 820 
Q 2550 1019 2634 1356 
Q 2719 1694 2719 2044 
Q 2719 2081 2716 2156 
Q 2547 1888 2255 1720 
Q 1963 1553 1622 1553 
Q 1053 1553 659 1965 
Q 266 2378 266 3053 
Q 266 3750 677 4175 
Q 1088 4600 1706 4600 
Q 2153 4600 2523 4359 
Q 2894 4119 3086 3673 
Q 3278 3228 3278 2384 
Q 3278 1506 3087 986 
Q 2897 466 2520 194 
Q 2144 -78 1638 -78 
Q 1100 -78 759 220 
Q 419 519 350 1059 
z
M 2653 3081 
Q 2653 3566 2395 3850 
Q 2138 4134 1775 4134 
Q 1400 4134 1122 3828 
Q 844 3522 844 3034 
Q 844 2597 1108 2323 
Q 1372 2050 1759 2050 
Q 2150 2050 2401 2323 
Q 2653 2597 2653 3081 
z
" transform="scale(0.015625)"/>
       </defs>
       <use xlink:href="#ArialMT-39"/>
       <use xlink:href="#ArialMT-30" x="55.615234"/>
      </g>
     </g>
    </g>
    <g id="text_6">
     <!-- Dementia diagnosis age -->
     <g style="fill: #262626" transform="translate(217.753516 397.333828)scale(0.18 -0.18)">
      <defs>
       <path id="ArialMT-44" d="M 494 0 
L 494 4581 
L 2072 4581 
Q 2606 4581 2888 4516 
Q 3281 4425 3559 4188 
Q 3922 3881 4101 3404 
Q 4281 2928 4281 2316 
Q 4281 1794 4159 1391 
Q 4038 988 3847 723 
Q 3656 459 3429 307 
Q 3203 156 2883 78 
Q 2563 0 2147 0 
L 494 0 
z
M 1100 541 
L 2078 541 
Q 2531 541 2789 625 
Q 3047 709 3200 863 
Q 3416 1078 3536 1442 
Q 3656 1806 3656 2325 
Q 3656 3044 3420 3430 
Q 3184 3816 2847 3947 
Q 2603 4041 2063 4041 
L 1100 4041 
L 1100 541 
z
" transform="scale(0.015625)"/>
       <path id="ArialMT-65" d="M 2694 1069 
L 3275 997 
Q 3138 488 2766 206 
Q 2394 -75 1816 -75 
Q 1088 -75 661 373 
Q 234 822 234 1631 
Q 234 2469 665 2931 
Q 1097 3394 1784 3394 
Q 2450 3394 2872 2941 
Q 3294 2488 3294 1666 
Q 3294 1616 3291 1516 
L 816 1516 
Q 847 969 1125 678 
Q 1403 388 1819 388 
Q 2128 388 2347 550 
Q 2566 713 2694 1069 
z
M 847 1978 
L 2700 1978 
Q 2663 2397 2488 2606 
Q 2219 2931 1791 2931 
Q 1403 2931 1139 2672 
Q 875 2413 847 1978 
z
" transform="scale(0.015625)"/>
       <path id="ArialMT-6d" d="M 422 0 
L 422 3319 
L 925 3319 
L 925 2853 
Q 1081 3097 1340 3245 
Q 1600 3394 1931 3394 
Q 2300 3394 2536 3241 
Q 2772 3088 2869 2813 
Q 3263 3394 3894 3394 
Q 4388 3394 4653 3120 
Q 4919 2847 4919 2278 
L 4919 0 
L 4359 0 
L 4359 2091 
Q 4359 2428 4304 2576 
Q 4250 2725 4106 2815 
Q 3963 2906 3769 2906 
Q 3419 2906 3187 2673 
Q 2956 2441 2956 1928 
L 2956 0 
L 2394 0 
L 2394 2156 
Q 2394 2531 2256 2718 
Q 2119 2906 1806 2906 
Q 1569 2906 1367 2781 
Q 1166 2656 1075 2415 
Q 984 2175 984 1722 
L 984 0 
L 422 0 
z
" transform="scale(0.015625)"/>
       <path id="ArialMT-6e" d="M 422 0 
L 422 3319 
L 928 3319 
L 928 2847 
Q 1294 3394 1984 3394 
Q 2284 3394 2536 3286 
Q 2788 3178 2913 3003 
Q 3038 2828 3088 2588 
Q 3119 2431 3119 2041 
L 3119 0 
L 2556 0 
L 2556 2019 
Q 2556 2363 2490 2533 
Q 2425 2703 2258 2804 
Q 2091 2906 1866 2906 
Q 1506 2906 1245 2678 
Q 984 2450 984 1813 
L 984 0 
L 422 0 
z
" transform="scale(0.015625)"/>
       <path id="ArialMT-74" d="M 1650 503 
L 1731 6 
Q 1494 -44 1306 -44 
Q 1000 -44 831 53 
Q 663 150 594 308 
Q 525 466 525 972 
L 525 2881 
L 113 2881 
L 113 3319 
L 525 3319 
L 525 4141 
L 1084 4478 
L 1084 3319 
L 1650 3319 
L 1650 2881 
L 1084 2881 
L 1084 941 
Q 1084 700 1114 631 
Q 1144 563 1211 522 
Q 1278 481 1403 481 
Q 1497 481 1650 503 
z
" transform="scale(0.015625)"/>
       <path id="ArialMT-69" d="M 425 3934 
L 425 4581 
L 988 4581 
L 988 3934 
L 425 3934 
z
M 425 0 
L 425 3319 
L 988 3319 
L 988 0 
L 425 0 
z
" transform="scale(0.015625)"/>
       <path id="ArialMT-61" d="M 2588 409 
Q 2275 144 1986 34 
Q 1697 -75 1366 -75 
Q 819 -75 525 192 
Q 231 459 231 875 
Q 231 1119 342 1320 
Q 453 1522 633 1644 
Q 813 1766 1038 1828 
Q 1203 1872 1538 1913 
Q 2219 1994 2541 2106 
Q 2544 2222 2544 2253 
Q 2544 2597 2384 2738 
Q 2169 2928 1744 2928 
Q 1347 2928 1158 2789 
Q 969 2650 878 2297 
L 328 2372 
Q 403 2725 575 2942 
Q 747 3159 1072 3276 
Q 1397 3394 1825 3394 
Q 2250 3394 2515 3294 
Q 2781 3194 2906 3042 
Q 3031 2891 3081 2659 
Q 3109 2516 3109 2141 
L 3109 1391 
Q 3109 606 3145 398 
Q 3181 191 3288 0 
L 2700 0 
Q 2613 175 2588 409 
z
M 2541 1666 
Q 2234 1541 1622 1453 
Q 1275 1403 1131 1340 
Q 988 1278 909 1158 
Q 831 1038 831 891 
Q 831 666 1001 516 
Q 1172 366 1500 366 
Q 1825 366 2078 508 
Q 2331 650 2450 897 
Q 2541 1088 2541 1459 
L 2541 1666 
z
" transform="scale(0.015625)"/>
       <path id="ArialMT-20" transform="scale(0.015625)"/>
       <path id="ArialMT-64" d="M 2575 0 
L 2575 419 
Q 2259 -75 1647 -75 
Q 1250 -75 917 144 
Q 584 363 401 755 
Q 219 1147 219 1656 
Q 219 2153 384 2558 
Q 550 2963 881 3178 
Q 1213 3394 1622 3394 
Q 1922 3394 2156 3267 
Q 2391 3141 2538 2938 
L 2538 4581 
L 3097 4581 
L 3097 0 
L 2575 0 
z
M 797 1656 
Q 797 1019 1065 703 
Q 1334 388 1700 388 
Q 2069 388 2326 689 
Q 2584 991 2584 1609 
Q 2584 2291 2321 2609 
Q 2059 2928 1675 2928 
Q 1300 2928 1048 2622 
Q 797 2316 797 1656 
z
" transform="scale(0.015625)"/>
       <path id="ArialMT-67" d="M 319 -275 
L 866 -356 
Q 900 -609 1056 -725 
Q 1266 -881 1628 -881 
Q 2019 -881 2231 -725 
Q 2444 -569 2519 -288 
Q 2563 -116 2559 434 
Q 2191 0 1641 0 
Q 956 0 581 494 
Q 206 988 206 1678 
Q 206 2153 378 2554 
Q 550 2956 876 3175 
Q 1203 3394 1644 3394 
Q 2231 3394 2613 2919 
L 2613 3319 
L 3131 3319 
L 3131 450 
Q 3131 -325 2973 -648 
Q 2816 -972 2473 -1159 
Q 2131 -1347 1631 -1347 
Q 1038 -1347 672 -1080 
Q 306 -813 319 -275 
z
M 784 1719 
Q 784 1066 1043 766 
Q 1303 466 1694 466 
Q 2081 466 2343 764 
Q 2606 1063 2606 1700 
Q 2606 2309 2336 2618 
Q 2066 2928 1684 2928 
Q 1309 2928 1046 2623 
Q 784 2319 784 1719 
z
" transform="scale(0.015625)"/>
       <path id="ArialMT-6f" d="M 213 1659 
Q 213 2581 725 3025 
Q 1153 3394 1769 3394 
Q 2453 3394 2887 2945 
Q 3322 2497 3322 1706 
Q 3322 1066 3130 698 
Q 2938 331 2570 128 
Q 2203 -75 1769 -75 
Q 1072 -75 642 372 
Q 213 819 213 1659 
z
M 791 1659 
Q 791 1022 1069 705 
Q 1347 388 1769 388 
Q 2188 388 2466 706 
Q 2744 1025 2744 1678 
Q 2744 2294 2464 2611 
Q 2184 2928 1769 2928 
Q 1347 2928 1069 2612 
Q 791 2297 791 1659 
z
" transform="scale(0.015625)"/>
       <path id="ArialMT-73" d="M 197 991 
L 753 1078 
Q 800 744 1014 566 
Q 1228 388 1613 388 
Q 2000 388 2187 545 
Q 2375 703 2375 916 
Q 2375 1106 2209 1216 
Q 2094 1291 1634 1406 
Q 1016 1563 777 1677 
Q 538 1791 414 1992 
Q 291 2194 291 2438 
Q 291 2659 392 2848 
Q 494 3038 669 3163 
Q 800 3259 1026 3326 
Q 1253 3394 1513 3394 
Q 1903 3394 2198 3281 
Q 2494 3169 2634 2976 
Q 2775 2784 2828 2463 
L 2278 2388 
Q 2241 2644 2061 2787 
Q 1881 2931 1553 2931 
Q 1166 2931 1000 2803 
Q 834 2675 834 2503 
Q 834 2394 903 2306 
Q 972 2216 1119 2156 
Q 1203 2125 1616 2013 
Q 2213 1853 2448 1751 
Q 2684 1650 2818 1456 
Q 2953 1263 2953 975 
Q 2953 694 2789 445 
Q 2625 197 2315 61 
Q 2006 -75 1616 -75 
Q 969 -75 630 194 
Q 291 463 197 991 
z
" transform="scale(0.015625)"/>
      </defs>
      <use xlink:href="#ArialMT-44"/>
      <use xlink:href="#ArialMT-65" x="72.216797"/>
      <use xlink:href="#ArialMT-6d" x="127.832031"/>
      <use xlink:href="#ArialMT-65" x="211.132812"/>
      <use xlink:href="#ArialMT-6e" x="266.748047"/>
      <use xlink:href="#ArialMT-74" x="322.363281"/>
      <use xlink:href="#ArialMT-69" x="350.146484"/>
      <use xlink:href="#ArialMT-61" x="372.363281"/>
      <use xlink:href="#ArialMT-20" x="427.978516"/>
      <use xlink:href="#ArialMT-64" x="455.761719"/>
      <use xlink:href="#ArialMT-69" x="511.376953"/>
      <use xlink:href="#ArialMT-61" x="533.59375"/>
      <use xlink:href="#ArialMT-67" x="589.208984"/>
      <use xlink:href="#ArialMT-6e" x="644.824219"/>
      <use xlink:href="#ArialMT-6f" x="700.439453"/>
      <use xlink:href="#ArialMT-73" x="756.054688"/>
      <use xlink:href="#ArialMT-69" x="806.054688"/>
      <use xlink:href="#ArialMT-73" x="828.271484"/>
      <use xlink:href="#ArialMT-20" x="878.271484"/>
      <use xlink:href="#ArialMT-61" x="906.054688"/>
      <use xlink:href="#ArialMT-67" x="961.669922"/>
      <use xlink:href="#ArialMT-65" x="1017.285156"/>
     </g>
    </g>
   </g>
   <g id="matplotlib.axis_2">
    <g id="ytick_1">
     <g id="line2d_6">
      <defs>
       <path id="m7df5194b82" d="M 0 0 
L -6 0 
" style="stroke: #262626; stroke-width: 1.25"/>
      </defs>
      <g>
       <use xlink:href="#m7df5194b82" x="69.483047" y="350.86" style="fill: #262626; stroke: #262626; stroke-width: 1.25"/>
      </g>
     </g>
     <g id="text_7">
      <!-- 0.00 -->
      <g style="fill: #262626" transform="translate(27.8725 356.765195)scale(0.165 -0.165)">
       <defs>
        <path id="ArialMT-2e" d="M 581 0 
L 581 641 
L 1222 641 
L 1222 0 
L 581 0 
z
" transform="scale(0.015625)"/>
       </defs>
       <use xlink:href="#ArialMT-30"/>
       <use xlink:href="#ArialMT-2e" x="55.615234"/>
       <use xlink:href="#ArialMT-30" x="83.398438"/>
       <use xlink:href="#ArialMT-30" x="139.013672"/>
      </g>
     </g>
    </g>
    <g id="ytick_2">
     <g id="line2d_7">
      <g>
       <use xlink:href="#m7df5194b82" x="69.483047" y="302.676968" style="fill: #262626; stroke: #262626; stroke-width: 1.25"/>
      </g>
     </g>
     <g id="text_8">
      <!-- 0.01 -->
      <g style="fill: #262626" transform="translate(27.8725 308.582163)scale(0.165 -0.165)">
       <defs>
        <path id="ArialMT-31" d="M 2384 0 
L 1822 0 
L 1822 3584 
Q 1619 3391 1289 3197 
Q 959 3003 697 2906 
L 697 3450 
Q 1169 3672 1522 3987 
Q 1875 4303 2022 4600 
L 2384 4600 
L 2384 0 
z
" transform="scale(0.015625)"/>
       </defs>
       <use xlink:href="#ArialMT-30"/>
       <use xlink:href="#ArialMT-2e" x="55.615234"/>
       <use xlink:href="#ArialMT-30" x="83.398438"/>
       <use xlink:href="#ArialMT-31" x="139.013672"/>
      </g>
     </g>
    </g>
    <g id="ytick_3">
     <g id="line2d_8">
      <g>
       <use xlink:href="#m7df5194b82" x="69.483047" y="254.493936" style="fill: #262626; stroke: #262626; stroke-width: 1.25"/>
      </g>
     </g>
     <g id="text_9">
      <!-- 0.02 -->
      <g style="fill: #262626" transform="translate(27.8725 260.399132)scale(0.165 -0.165)">
       <defs>
        <path id="ArialMT-32" d="M 3222 541 
L 3222 0 
L 194 0 
Q 188 203 259 391 
Q 375 700 629 1000 
Q 884 1300 1366 1694 
Q 2113 2306 2375 2664 
Q 2638 3022 2638 3341 
Q 2638 3675 2398 3904 
Q 2159 4134 1775 4134 
Q 1369 4134 1125 3890 
Q 881 3647 878 3216 
L 300 3275 
Q 359 3922 746 4261 
Q 1134 4600 1788 4600 
Q 2447 4600 2831 4234 
Q 3216 3869 3216 3328 
Q 3216 3053 3103 2787 
Q 2991 2522 2730 2228 
Q 2469 1934 1863 1422 
Q 1356 997 1212 845 
Q 1069 694 975 541 
L 3222 541 
z
" transform="scale(0.015625)"/>
       </defs>
       <use xlink:href="#ArialMT-30"/>
       <use xlink:href="#ArialMT-2e" x="55.615234"/>
       <use xlink:href="#ArialMT-30" x="83.398438"/>
       <use xlink:href="#ArialMT-32" x="139.013672"/>
      </g>
     </g>
    </g>
    <g id="ytick_4">
     <g id="line2d_9">
      <g>
       <use xlink:href="#m7df5194b82" x="69.483047" y="206.310905" style="fill: #262626; stroke: #262626; stroke-width: 1.25"/>
      </g>
     </g>
     <g id="text_10">
      <!-- 0.03 -->
      <g style="fill: #262626" transform="translate(27.8725 212.2161)scale(0.165 -0.165)">
       <defs>
        <path id="ArialMT-33" d="M 269 1209 
L 831 1284 
Q 928 806 1161 595 
Q 1394 384 1728 384 
Q 2125 384 2398 659 
Q 2672 934 2672 1341 
Q 2672 1728 2419 1979 
Q 2166 2231 1775 2231 
Q 1616 2231 1378 2169 
L 1441 2663 
Q 1497 2656 1531 2656 
Q 1891 2656 2178 2843 
Q 2466 3031 2466 3422 
Q 2466 3731 2256 3934 
Q 2047 4138 1716 4138 
Q 1388 4138 1169 3931 
Q 950 3725 888 3313 
L 325 3413 
Q 428 3978 793 4289 
Q 1159 4600 1703 4600 
Q 2078 4600 2393 4439 
Q 2709 4278 2876 4000 
Q 3044 3722 3044 3409 
Q 3044 3113 2884 2869 
Q 2725 2625 2413 2481 
Q 2819 2388 3044 2092 
Q 3269 1797 3269 1353 
Q 3269 753 2831 336 
Q 2394 -81 1725 -81 
Q 1122 -81 723 278 
Q 325 638 269 1209 
z
" transform="scale(0.015625)"/>
       </defs>
       <use xlink:href="#ArialMT-30"/>
       <use xlink:href="#ArialMT-2e" x="55.615234"/>
       <use xlink:href="#ArialMT-30" x="83.398438"/>
       <use xlink:href="#ArialMT-33" x="139.013672"/>
      </g>
     </g>
    </g>
    <g id="ytick_5">
     <g id="line2d_10">
      <g>
       <use xlink:href="#m7df5194b82" x="69.483047" y="158.127873" style="fill: #262626; stroke: #262626; stroke-width: 1.25"/>
      </g>
     </g>
     <g id="text_11">
      <!-- 0.04 -->
      <g style="fill: #262626" transform="translate(27.8725 164.033068)scale(0.165 -0.165)">
       <defs>
        <path id="ArialMT-34" d="M 2069 0 
L 2069 1097 
L 81 1097 
L 81 1613 
L 2172 4581 
L 2631 4581 
L 2631 1613 
L 3250 1613 
L 3250 1097 
L 2631 1097 
L 2631 0 
L 2069 0 
z
M 2069 1613 
L 2069 3678 
L 634 1613 
L 2069 1613 
z
" transform="scale(0.015625)"/>
       </defs>
       <use xlink:href="#ArialMT-30"/>
       <use xlink:href="#ArialMT-2e" x="55.615234"/>
       <use xlink:href="#ArialMT-30" x="83.398438"/>
       <use xlink:href="#ArialMT-34" x="139.013672"/>
      </g>
     </g>
    </g>
    <g id="ytick_6">
     <g id="line2d_11">
      <g>
       <use xlink:href="#m7df5194b82" x="69.483047" y="109.944841" style="fill: #262626; stroke: #262626; stroke-width: 1.25"/>
      </g>
     </g>
     <g id="text_12">
      <!-- 0.05 -->
      <g style="fill: #262626" transform="translate(27.8725 115.850036)scale(0.165 -0.165)">
       <use xlink:href="#ArialMT-30"/>
       <use xlink:href="#ArialMT-2e" x="55.615234"/>
       <use xlink:href="#ArialMT-30" x="83.398438"/>
       <use xlink:href="#ArialMT-35" x="139.013672"/>
      </g>
     </g>
    </g>
    <g id="ytick_7">
     <g id="line2d_12">
      <g>
       <use xlink:href="#m7df5194b82" x="69.483047" y="61.761809" style="fill: #262626; stroke: #262626; stroke-width: 1.25"/>
      </g>
     </g>
     <g id="text_13">
      <!-- 0.06 -->
      <g style="fill: #262626" transform="translate(27.8725 67.667004)scale(0.165 -0.165)">
       <use xlink:href="#ArialMT-30"/>
       <use xlink:href="#ArialMT-2e" x="55.615234"/>
       <use xlink:href="#ArialMT-30" x="83.398438"/>
       <use xlink:href="#ArialMT-36" x="139.013672"/>
      </g>
     </g>
    </g>
    <g id="ytick_8">
     <g id="line2d_13">
      <g>
       <use xlink:href="#m7df5194b82" x="69.483047" y="13.578777" style="fill: #262626; stroke: #262626; stroke-width: 1.25"/>
      </g>
     </g>
     <g id="text_14">
      <!-- 0.07 -->
      <g style="fill: #262626" transform="translate(27.8725 19.483973)scale(0.165 -0.165)">
       <use xlink:href="#ArialMT-30"/>
       <use xlink:href="#ArialMT-2e" x="55.615234"/>
       <use xlink:href="#ArialMT-30" x="83.398438"/>
       <use xlink:href="#ArialMT-37" x="139.013672"/>
      </g>
     </g>
    </g>
    <g id="text_15">
     <!-- Density -->
     <g style="fill: #262626" transform="translate(20.084063 209.039375)rotate(-90)scale(0.18 -0.18)">
      <defs>
       <path id="ArialMT-79" d="M 397 -1278 
L 334 -750 
Q 519 -800 656 -800 
Q 844 -800 956 -737 
Q 1069 -675 1141 -563 
Q 1194 -478 1313 -144 
Q 1328 -97 1363 -6 
L 103 3319 
L 709 3319 
L 1400 1397 
Q 1534 1031 1641 628 
Q 1738 1016 1872 1384 
L 2581 3319 
L 3144 3319 
L 1881 -56 
Q 1678 -603 1566 -809 
Q 1416 -1088 1222 -1217 
Q 1028 -1347 759 -1347 
Q 597 -1347 397 -1278 
z
" transform="scale(0.015625)"/>
      </defs>
      <use xlink:href="#ArialMT-44"/>
      <use xlink:href="#ArialMT-65" x="72.216797"/>
      <use xlink:href="#ArialMT-6e" x="127.832031"/>
      <use xlink:href="#ArialMT-73" x="183.447266"/>
      <use xlink:href="#ArialMT-69" x="233.447266"/>
      <use xlink:href="#ArialMT-74" x="255.664062"/>
      <use xlink:href="#ArialMT-79" x="283.447266"/>
     </g>
    </g>
   </g>
   <g id="PolyCollection_1">
    <defs>
     <path id="m49c9c422f5" d="M 96.28532 -57.630076 
L 96.28532 -57.462266 
L 98.476503 -57.462266 
L 100.667686 -57.462266 
L 102.858869 -57.462266 
L 105.050052 -57.462266 
L 107.241236 -57.462266 
L 109.432419 -57.462266 
L 111.623602 -57.462266 
L 113.814785 -57.462266 
L 116.005968 -57.462266 
L 118.197151 -57.462266 
L 120.388335 -57.462266 
L 122.579518 -57.462266 
L 124.770701 -57.462266 
L 126.961884 -57.462266 
L 129.153067 -57.462266 
L 131.344251 -57.462266 
L 133.535434 -57.462266 
L 135.726617 -57.462266 
L 137.9178 -57.462266 
L 140.108983 -57.462266 
L 142.300167 -57.462266 
L 144.49135 -57.462266 
L 146.682533 -57.462266 
L 148.873716 -57.462266 
L 151.064899 -57.462266 
L 153.256083 -57.462266 
L 155.447266 -57.462266 
L 157.638449 -57.462266 
L 159.829632 -57.462266 
L 162.020815 -57.462266 
L 164.211998 -57.462266 
L 166.403182 -57.462266 
L 168.594365 -57.462266 
L 170.785548 -57.462266 
L 172.976731 -57.462266 
L 175.167914 -57.462266 
L 177.359098 -57.462266 
L 179.550281 -57.462266 
L 181.741464 -57.462266 
L 183.932647 -57.462266 
L 186.12383 -57.462266 
L 188.315014 -57.462266 
L 190.506197 -57.462266 
L 192.69738 -57.462266 
L 194.888563 -57.462266 
L 197.079746 -57.462266 
L 199.270929 -57.462266 
L 201.462113 -57.462266 
L 203.653296 -57.462266 
L 205.844479 -57.462266 
L 208.035662 -57.462266 
L 210.226845 -57.462266 
L 212.418029 -57.462266 
L 214.609212 -57.462266 
L 216.800395 -57.462266 
L 218.991578 -57.462266 
L 221.182761 -57.462266 
L 223.373945 -57.462266 
L 225.565128 -57.462266 
L 227.756311 -57.462266 
L 229.947494 -57.462266 
L 232.138677 -57.462266 
L 234.32986 -57.462266 
L 236.521044 -57.462266 
L 238.712227 -57.462266 
L 240.90341 -57.462266 
L 243.094593 -57.462266 
L 245.285776 -57.462266 
L 247.47696 -57.462266 
L 249.668143 -57.462266 
L 251.859326 -57.462266 
L 254.050509 -57.462266 
L 256.241692 -57.462266 
L 258.432876 -57.462266 
L 260.624059 -57.462266 
L 262.815242 -57.462266 
L 265.006425 -57.462266 
L 267.197608 -57.462266 
L 269.388792 -57.462266 
L 271.579975 -57.462266 
L 273.771158 -57.462266 
L 275.962341 -57.462266 
L 278.153524 -57.462266 
L 280.344707 -57.462266 
L 282.535891 -57.462266 
L 284.727074 -57.462266 
L 286.918257 -57.462266 
L 289.10944 -57.462266 
L 291.300623 -57.462266 
L 293.491807 -57.462266 
L 295.68299 -57.462266 
L 297.874173 -57.462266 
L 300.065356 -57.462266 
L 302.256539 -57.462266 
L 304.447723 -57.462266 
L 306.638906 -57.462266 
L 308.830089 -57.462266 
L 311.021272 -57.462266 
L 313.212455 -57.462266 
L 315.403638 -57.462266 
L 317.594822 -57.462266 
L 319.786005 -57.462266 
L 321.977188 -57.462266 
L 324.168371 -57.462266 
L 326.359554 -57.462266 
L 328.550738 -57.462266 
L 330.741921 -57.462266 
L 332.933104 -57.462266 
L 335.124287 -57.462266 
L 337.31547 -57.462266 
L 339.506654 -57.462266 
L 341.697837 -57.462266 
L 343.88902 -57.462266 
L 346.080203 -57.462266 
L 348.271386 -57.462266 
L 350.462569 -57.462266 
L 352.653753 -57.462266 
L 354.844936 -57.462266 
L 357.036119 -57.462266 
L 359.227302 -57.462266 
L 361.418485 -57.462266 
L 363.609669 -57.462266 
L 365.800852 -57.462266 
L 367.992035 -57.462266 
L 370.183218 -57.462266 
L 372.374401 -57.462266 
L 374.565585 -57.462266 
L 376.756768 -57.462266 
L 378.947951 -57.462266 
L 381.139134 -57.462266 
L 383.330317 -57.462266 
L 385.521501 -57.462266 
L 387.712684 -57.462266 
L 389.903867 -57.462266 
L 392.09505 -57.462266 
L 394.286233 -57.462266 
L 396.477416 -57.462266 
L 398.6686 -57.462266 
L 400.859783 -57.462266 
L 403.050966 -57.462266 
L 405.242149 -57.462266 
L 407.433332 -57.462266 
L 409.624516 -57.462266 
L 411.815699 -57.462266 
L 414.006882 -57.462266 
L 416.198065 -57.462266 
L 418.389248 -57.462266 
L 420.580432 -57.462266 
L 422.771615 -57.462266 
L 424.962798 -57.462266 
L 427.153981 -57.462266 
L 429.345164 -57.462266 
L 431.536347 -57.462266 
L 433.727531 -57.462266 
L 435.918714 -57.462266 
L 438.109897 -57.462266 
L 440.30108 -57.462266 
L 442.492263 -57.462266 
L 444.683447 -57.462266 
L 446.87463 -57.462266 
L 449.065813 -57.462266 
L 451.256996 -57.462266 
L 453.448179 -57.462266 
L 455.639363 -57.462266 
L 457.830546 -57.462266 
L 460.021729 -57.462266 
L 462.212912 -57.462266 
L 464.404095 -57.462266 
L 466.595278 -57.462266 
L 468.786462 -57.462266 
L 470.977645 -57.462266 
L 473.168828 -57.462266 
L 475.360011 -57.462266 
L 477.551194 -57.462266 
L 479.742378 -57.462266 
L 481.933561 -57.462266 
L 484.124744 -57.462266 
L 486.315927 -57.462266 
L 488.50711 -57.462266 
L 490.698294 -57.462266 
L 492.889477 -57.462266 
L 495.08066 -57.462266 
L 497.271843 -57.462266 
L 499.463026 -57.462266 
L 501.65421 -57.462266 
L 503.845393 -57.462266 
L 506.036576 -57.462266 
L 508.227759 -57.462266 
L 510.418942 -57.462266 
L 512.610125 -57.462266 
L 514.801309 -57.462266 
L 516.992492 -57.462266 
L 519.183675 -57.462266 
L 521.374858 -57.462266 
L 523.566041 -57.462266 
L 525.757225 -57.462266 
L 527.948408 -57.462266 
L 530.139591 -57.462266 
L 532.330774 -57.462266 
L 532.330774 -57.718471 
L 532.330774 -57.718471 
L 530.139591 -57.799722 
L 527.948408 -57.903949 
L 525.757225 -58.03676 
L 523.566041 -58.204873 
L 521.374858 -58.416268 
L 519.183675 -58.680344 
L 516.992492 -59.008075 
L 514.801309 -59.412162 
L 512.610125 -59.907175 
L 510.418942 -60.509675 
L 508.227759 -61.238314 
L 506.036576 -62.113896 
L 503.845393 -63.159404 
L 501.65421 -64.399968 
L 499.463026 -65.862778 
L 497.271843 -67.576928 
L 495.08066 -69.57319 
L 492.889477 -71.883701 
L 490.698294 -74.541577 
L 488.50711 -77.580436 
L 486.315927 -81.033846 
L 484.124744 -84.934685 
L 481.933561 -89.314444 
L 479.742378 -94.202456 
L 477.551194 -99.625092 
L 475.360011 -105.604915 
L 473.168828 -112.159825 
L 470.977645 -119.302222 
L 468.786462 -127.038185 
L 466.595278 -135.366724 
L 464.404095 -144.279095 
L 462.212912 -153.758233 
L 460.021729 -163.778302 
L 457.830546 -174.304402 
L 455.639363 -185.292434 
L 453.448179 -196.689158 
L 451.256996 -208.43244 
L 449.065813 -220.45171 
L 446.87463 -232.668618 
L 444.683447 -244.997903 
L 442.492263 -257.34846 
L 440.30108 -269.624585 
L 438.109897 -281.727394 
L 435.918714 -293.556383 
L 433.727531 -305.011098 
L 431.536347 -315.992885 
L 429.345164 -326.406687 
L 427.153981 -336.162831 
L 424.962798 -345.178778 
L 422.771615 -353.38078 
L 420.580432 -360.705402 
L 418.389248 -367.100872 
L 416.198065 -372.528199 
L 414.006882 -376.962048 
L 411.815699 -380.391316 
L 409.624516 -382.819406 
L 407.433332 -384.264168 
L 405.242149 -384.757504 
L 403.050966 -384.344638 
L 400.859783 -383.083075 
L 398.6686 -381.041243 
L 396.477416 -378.296884 
L 394.286233 -374.935203 
L 392.09505 -371.046841 
L 389.903867 -366.725718 
L 387.712684 -362.066804 
L 385.521501 -357.163884 
L 383.330317 -352.107371 
L 381.139134 -346.982238 
L 378.947951 -341.86612 
L 376.756768 -336.827647 
L 374.565585 -331.925049 
L 372.374401 -327.205086 
L 370.183218 -322.70232 
L 367.992035 -318.43876 
L 365.800852 -314.423886 
L 363.609669 -310.655048 
L 361.418485 -307.118228 
L 359.227302 -303.789132 
L 357.036119 -300.634582 
L 354.844936 -297.614142 
L 352.653753 -294.681944 
L 350.462569 -291.788616 
L 348.271386 -288.883279 
L 346.080203 -285.915508 
L 343.88902 -282.837217 
L 341.697837 -279.604378 
L 339.506654 -276.178535 
L 337.31547 -272.528058 
L 335.124287 -268.629094 
L 332.933104 -264.466211 
L 330.741921 -260.032694 
L 328.550738 -255.330532 
L 326.359554 -250.370084 
L 324.168371 -245.169463 
L 321.977188 -239.753679 
L 319.786005 -234.153576 
L 317.594822 -228.40462 
L 315.403638 -222.545593 
L 313.212455 -216.617235 
L 311.021272 -210.660897 
L 308.830089 -204.717254 
L 306.638906 -198.825106 
L 304.447723 -193.020323 
L 302.256539 -187.334946 
L 300.065356 -181.796477 
L 297.874173 -176.42737 
L 295.68299 -171.24472 
L 293.491807 -166.26016 
L 291.300623 -161.47995 
L 289.10944 -156.905251 
L 286.918257 -152.532547 
L 284.727074 -148.354223 
L 282.535891 -144.359231 
L 280.344707 -140.533851 
L 278.153524 -136.862494 
L 275.962341 -133.328527 
L 273.771158 -129.915085 
L 271.579975 -126.605843 
L 269.388792 -123.385731 
L 267.197608 -120.241553 
L 265.006425 -117.162511 
L 262.815242 -114.140613 
L 260.624059 -111.17095 
L 258.432876 -108.25185 
L 256.241692 -105.384905 
L 254.050509 -102.574871 
L 251.859326 -99.829455 
L 249.668143 -97.159004 
L 247.47696 -94.576104 
L 245.285776 -92.095105 
L 243.094593 -89.731595 
L 240.90341 -87.501835 
L 238.712227 -85.42218 
L 236.521044 -83.508489 
L 234.32986 -81.775555 
L 232.138677 -80.236558 
L 229.947494 -78.902562 
L 227.756311 -77.782059 
L 225.565128 -76.880578 
L 223.373945 -76.200362 
L 221.182761 -75.740127 
L 218.991578 -75.4949 
L 216.800395 -75.455952 
L 214.609212 -75.610826 
L 212.418029 -75.943459 
L 210.226845 -76.434407 
L 208.035662 -77.06116 
L 205.844479 -77.798567 
L 203.653296 -78.619328 
L 201.462113 -79.494582 
L 199.270929 -80.394545 
L 197.079746 -81.289208 
L 194.888563 -82.149051 
L 192.69738 -82.945774 
L 190.506197 -83.652997 
L 188.315014 -84.246928 
L 186.12383 -84.706953 
L 183.932647 -85.016139 
L 181.741464 -85.161629 
L 179.550281 -85.134902 
L 177.359098 -84.931903 
L 175.167914 -84.553026 
L 172.976731 -84.002959 
L 170.785548 -83.290391 
L 168.594365 -82.427607 
L 166.403182 -81.429972 
L 164.211998 -80.315346 
L 162.020815 -79.103439 
L 159.829632 -77.815145 
L 157.638449 -76.471878 
L 155.447266 -75.094931 
L 153.256083 -73.704887 
L 151.064899 -72.321105 
L 148.873716 -70.961283 
L 146.682533 -69.641115 
L 144.49135 -68.374058 
L 142.300167 -67.171182 
L 140.108983 -66.041126 
L 137.9178 -64.990136 
L 135.726617 -64.022178 
L 133.535434 -63.13911 
L 131.344251 -62.340906 
L 129.153067 -61.625906 
L 126.961884 -60.99109 
L 124.770701 -60.432352 
L 122.579518 -59.94477 
L 120.388335 -59.522862 
L 118.197151 -59.160811 
L 116.005968 -58.852675 
L 113.814785 -58.592553 
L 111.623602 -58.37473 
L 109.432419 -58.19378 
L 107.241236 -58.044649 
L 105.050052 -57.922708 
L 102.858869 -57.823775 
L 100.667686 -57.744131 
L 98.476503 -57.680509 
L 96.28532 -57.630076 
z
" style="stroke: #0000ff"/>
    </defs>
    <g clip-path="url(#p6de8f265a6)">
     <use xlink:href="#m49c9c422f5" x="0" y="408.322266" style="fill: #0000ff; fill-opacity: 0.1; stroke: #0000ff"/>
    </g>
   </g>
   <g id="patch_3">
    <path d="M 69.483047 350.86 
L 69.483047 7.2 
" style="fill: none; stroke: #262626; stroke-width: 1.25; stroke-linejoin: miter; stroke-linecap: square"/>
   </g>
   <g id="patch_4">
    <path d="M 74.483047 355.86 
L 554.133047 355.86 
" style="fill: none; stroke: #262626; stroke-width: 1.25; stroke-linejoin: miter; stroke-linecap: square"/>
   </g>
  </g>
  <g id="axes_2">
   <g id="patch_5">
    <path d="M 640.763047 350.86 
L 1120.413047 350.86 
L 1120.413047 7.2 
L 640.763047 7.2 
z
" style="fill: #ffffff"/>
   </g>
   <g id="matplotlib.axis_3">
    <g id="xtick_6">
     <g id="line2d_14">
      <g>
       <use xlink:href="#m00fd77e4b7" x="642.711923" y="355.86" style="fill: #262626; stroke: #262626; stroke-width: 1.25"/>
      </g>
     </g>
     <g id="text_16">
      <!-- 55 -->
      <g style="fill: #262626" transform="translate(633.536376 377.170391)scale(0.165 -0.165)">
       <use xlink:href="#ArialMT-35"/>
       <use xlink:href="#ArialMT-35" x="55.615234"/>
      </g>
     </g>
    </g>
    <g id="xtick_7">
     <g id="line2d_15">
      <g>
       <use xlink:href="#m00fd77e4b7" x="704.929612" y="355.86" style="fill: #262626; stroke: #262626; stroke-width: 1.25"/>
      </g>
     </g>
     <g id="text_17">
      <!-- 60 -->
      <g style="fill: #262626" transform="translate(695.754065 377.170391)scale(0.165 -0.165)">
       <use xlink:href="#ArialMT-36"/>
       <use xlink:href="#ArialMT-30" x="55.615234"/>
      </g>
     </g>
    </g>
    <g id="xtick_8">
     <g id="line2d_16">
      <g>
       <use xlink:href="#m00fd77e4b7" x="767.147301" y="355.86" style="fill: #262626; stroke: #262626; stroke-width: 1.25"/>
      </g>
     </g>
     <g id="text_18">
      <!-- 65 -->
      <g style="fill: #262626" transform="translate(757.971754 377.170391)scale(0.165 -0.165)">
       <use xlink:href="#ArialMT-36"/>
       <use xlink:href="#ArialMT-35" x="55.615234"/>
      </g>
     </g>
    </g>
    <g id="xtick_9">
     <g id="line2d_17">
      <g>
       <use xlink:href="#m00fd77e4b7" x="829.36499" y="355.86" style="fill: #262626; stroke: #262626; stroke-width: 1.25"/>
      </g>
     </g>
     <g id="text_19">
      <!-- 70 -->
      <g style="fill: #262626" transform="translate(820.189444 377.170391)scale(0.165 -0.165)">
       <use xlink:href="#ArialMT-37"/>
       <use xlink:href="#ArialMT-30" x="55.615234"/>
      </g>
     </g>
    </g>
    <g id="xtick_10">
     <g id="line2d_18">
      <g>
       <use xlink:href="#m00fd77e4b7" x="891.58268" y="355.86" style="fill: #262626; stroke: #262626; stroke-width: 1.25"/>
      </g>
     </g>
     <g id="text_20">
      <!-- 75 -->
      <g style="fill: #262626" transform="translate(882.407133 377.170391)scale(0.165 -0.165)">
       <use xlink:href="#ArialMT-37"/>
       <use xlink:href="#ArialMT-35" x="55.615234"/>
      </g>
     </g>
    </g>
    <g id="xtick_11">
     <g id="line2d_19">
      <g>
       <use xlink:href="#m00fd77e4b7" x="953.800369" y="355.86" style="fill: #262626; stroke: #262626; stroke-width: 1.25"/>
      </g>
     </g>
     <g id="text_21">
      <!-- 80 -->
      <g style="fill: #262626" transform="translate(944.624822 377.170391)scale(0.165 -0.165)">
       <use xlink:href="#ArialMT-38"/>
       <use xlink:href="#ArialMT-30" x="55.615234"/>
      </g>
     </g>
    </g>
    <g id="xtick_12">
     <g id="line2d_20">
      <g>
       <use xlink:href="#m00fd77e4b7" x="1016.018058" y="355.86" style="fill: #262626; stroke: #262626; stroke-width: 1.25"/>
      </g>
     </g>
     <g id="text_22">
      <!-- 85 -->
      <g style="fill: #262626" transform="translate(1006.842511 377.170391)scale(0.165 -0.165)">
       <use xlink:href="#ArialMT-38"/>
       <use xlink:href="#ArialMT-35" x="55.615234"/>
      </g>
     </g>
    </g>
    <g id="xtick_13">
     <g id="line2d_21">
      <g>
       <use xlink:href="#m00fd77e4b7" x="1078.235747" y="355.86" style="fill: #262626; stroke: #262626; stroke-width: 1.25"/>
      </g>
     </g>
     <g id="text_23">
      <!-- 90 -->
      <g style="fill: #262626" transform="translate(1069.0602 377.170391)scale(0.165 -0.165)">
       <use xlink:href="#ArialMT-39"/>
       <use xlink:href="#ArialMT-30" x="55.615234"/>
      </g>
     </g>
    </g>
    <g id="text_24">
     <!-- PD diagnosis age -->
     <g style="fill: #262626" transform="translate(810.046328 397.333828)scale(0.18 -0.18)">
      <defs>
       <path id="ArialMT-50" d="M 494 0 
L 494 4581 
L 2222 4581 
Q 2678 4581 2919 4538 
Q 3256 4481 3484 4323 
Q 3713 4166 3852 3881 
Q 3991 3597 3991 3256 
Q 3991 2672 3619 2267 
Q 3247 1863 2275 1863 
L 1100 1863 
L 1100 0 
L 494 0 
z
M 1100 2403 
L 2284 2403 
Q 2872 2403 3119 2622 
Q 3366 2841 3366 3238 
Q 3366 3525 3220 3729 
Q 3075 3934 2838 4000 
Q 2684 4041 2272 4041 
L 1100 4041 
L 1100 2403 
z
" transform="scale(0.015625)"/>
      </defs>
      <use xlink:href="#ArialMT-50"/>
      <use xlink:href="#ArialMT-44" x="66.699219"/>
      <use xlink:href="#ArialMT-20" x="138.916016"/>
      <use xlink:href="#ArialMT-64" x="166.699219"/>
      <use xlink:href="#ArialMT-69" x="222.314453"/>
      <use xlink:href="#ArialMT-61" x="244.53125"/>
      <use xlink:href="#ArialMT-67" x="300.146484"/>
      <use xlink:href="#ArialMT-6e" x="355.761719"/>
      <use xlink:href="#ArialMT-6f" x="411.376953"/>
      <use xlink:href="#ArialMT-73" x="466.992188"/>
      <use xlink:href="#ArialMT-69" x="516.992188"/>
      <use xlink:href="#ArialMT-73" x="539.208984"/>
      <use xlink:href="#ArialMT-20" x="589.208984"/>
      <use xlink:href="#ArialMT-61" x="616.992188"/>
      <use xlink:href="#ArialMT-67" x="672.607422"/>
      <use xlink:href="#ArialMT-65" x="728.222656"/>
     </g>
    </g>
   </g>
   <g id="matplotlib.axis_4">
    <g id="ytick_9">
     <g id="line2d_22">
      <g>
       <use xlink:href="#m7df5194b82" x="635.763047" y="350.86" style="fill: #262626; stroke: #262626; stroke-width: 1.25"/>
      </g>
     </g>
     <g id="text_25">
      <!-- 0.00 -->
      <g style="fill: #262626" transform="translate(594.1525 356.765195)scale(0.165 -0.165)">
       <use xlink:href="#ArialMT-30"/>
       <use xlink:href="#ArialMT-2e" x="55.615234"/>
       <use xlink:href="#ArialMT-30" x="83.398438"/>
       <use xlink:href="#ArialMT-30" x="139.013672"/>
      </g>
     </g>
    </g>
    <g id="ytick_10">
     <g id="line2d_23">
      <g>
       <use xlink:href="#m7df5194b82" x="635.763047" y="306.211744" style="fill: #262626; stroke: #262626; stroke-width: 1.25"/>
      </g>
     </g>
     <g id="text_26">
      <!-- 0.01 -->
      <g style="fill: #262626" transform="translate(594.1525 312.116939)scale(0.165 -0.165)">
       <use xlink:href="#ArialMT-30"/>
       <use xlink:href="#ArialMT-2e" x="55.615234"/>
       <use xlink:href="#ArialMT-30" x="83.398438"/>
       <use xlink:href="#ArialMT-31" x="139.013672"/>
      </g>
     </g>
    </g>
    <g id="ytick_11">
     <g id="line2d_24">
      <g>
       <use xlink:href="#m7df5194b82" x="635.763047" y="261.563487" style="fill: #262626; stroke: #262626; stroke-width: 1.25"/>
      </g>
     </g>
     <g id="text_27">
      <!-- 0.02 -->
      <g style="fill: #262626" transform="translate(594.1525 267.468683)scale(0.165 -0.165)">
       <use xlink:href="#ArialMT-30"/>
       <use xlink:href="#ArialMT-2e" x="55.615234"/>
       <use xlink:href="#ArialMT-30" x="83.398438"/>
       <use xlink:href="#ArialMT-32" x="139.013672"/>
      </g>
     </g>
    </g>
    <g id="ytick_12">
     <g id="line2d_25">
      <g>
       <use xlink:href="#m7df5194b82" x="635.763047" y="216.915231" style="fill: #262626; stroke: #262626; stroke-width: 1.25"/>
      </g>
     </g>
     <g id="text_28">
      <!-- 0.03 -->
      <g style="fill: #262626" transform="translate(594.1525 222.820426)scale(0.165 -0.165)">
       <use xlink:href="#ArialMT-30"/>
       <use xlink:href="#ArialMT-2e" x="55.615234"/>
       <use xlink:href="#ArialMT-30" x="83.398438"/>
       <use xlink:href="#ArialMT-33" x="139.013672"/>
      </g>
     </g>
    </g>
    <g id="ytick_13">
     <g id="line2d_26">
      <g>
       <use xlink:href="#m7df5194b82" x="635.763047" y="172.266974" style="fill: #262626; stroke: #262626; stroke-width: 1.25"/>
      </g>
     </g>
     <g id="text_29">
      <!-- 0.04 -->
      <g style="fill: #262626" transform="translate(594.1525 178.17217)scale(0.165 -0.165)">
       <use xlink:href="#ArialMT-30"/>
       <use xlink:href="#ArialMT-2e" x="55.615234"/>
       <use xlink:href="#ArialMT-30" x="83.398438"/>
       <use xlink:href="#ArialMT-34" x="139.013672"/>
      </g>
     </g>
    </g>
    <g id="ytick_14">
     <g id="line2d_27">
      <g>
       <use xlink:href="#m7df5194b82" x="635.763047" y="127.618718" style="fill: #262626; stroke: #262626; stroke-width: 1.25"/>
      </g>
     </g>
     <g id="text_30">
      <!-- 0.05 -->
      <g style="fill: #262626" transform="translate(594.1525 133.523913)scale(0.165 -0.165)">
       <use xlink:href="#ArialMT-30"/>
       <use xlink:href="#ArialMT-2e" x="55.615234"/>
       <use xlink:href="#ArialMT-30" x="83.398438"/>
       <use xlink:href="#ArialMT-35" x="139.013672"/>
      </g>
     </g>
    </g>
    <g id="ytick_15">
     <g id="line2d_28">
      <g>
       <use xlink:href="#m7df5194b82" x="635.763047" y="82.970462" style="fill: #262626; stroke: #262626; stroke-width: 1.25"/>
      </g>
     </g>
     <g id="text_31">
      <!-- 0.06 -->
      <g style="fill: #262626" transform="translate(594.1525 88.875657)scale(0.165 -0.165)">
       <use xlink:href="#ArialMT-30"/>
       <use xlink:href="#ArialMT-2e" x="55.615234"/>
       <use xlink:href="#ArialMT-30" x="83.398438"/>
       <use xlink:href="#ArialMT-36" x="139.013672"/>
      </g>
     </g>
    </g>
    <g id="ytick_16">
     <g id="line2d_29">
      <g>
       <use xlink:href="#m7df5194b82" x="635.763047" y="38.322205" style="fill: #262626; stroke: #262626; stroke-width: 1.25"/>
      </g>
     </g>
     <g id="text_32">
      <!-- 0.07 -->
      <g style="fill: #262626" transform="translate(594.1525 44.2274)scale(0.165 -0.165)">
       <use xlink:href="#ArialMT-30"/>
       <use xlink:href="#ArialMT-2e" x="55.615234"/>
       <use xlink:href="#ArialMT-30" x="83.398438"/>
       <use xlink:href="#ArialMT-37" x="139.013672"/>
      </g>
     </g>
    </g>
    <g id="text_33">
     <!-- Density -->
     <g style="fill: #262626" transform="translate(586.364063 209.039375)rotate(-90)scale(0.18 -0.18)">
      <use xlink:href="#ArialMT-44"/>
      <use xlink:href="#ArialMT-65" x="72.216797"/>
      <use xlink:href="#ArialMT-6e" x="127.832031"/>
      <use xlink:href="#ArialMT-73" x="183.447266"/>
      <use xlink:href="#ArialMT-69" x="233.447266"/>
      <use xlink:href="#ArialMT-74" x="255.664062"/>
      <use xlink:href="#ArialMT-79" x="283.447266"/>
     </g>
    </g>
   </g>
   <g id="PolyCollection_2">
    <defs>
     <path id="m3073a5a58f" d="M 662.56532 -57.759493 
L 662.56532 -57.462266 
L 664.756503 -57.462266 
L 666.947686 -57.462266 
L 669.138869 -57.462266 
L 671.330052 -57.462266 
L 673.521236 -57.462266 
L 675.712419 -57.462266 
L 677.903602 -57.462266 
L 680.094785 -57.462266 
L 682.285968 -57.462266 
L 684.477151 -57.462266 
L 686.668335 -57.462266 
L 688.859518 -57.462266 
L 691.050701 -57.462266 
L 693.241884 -57.462266 
L 695.433067 -57.462266 
L 697.624251 -57.462266 
L 699.815434 -57.462266 
L 702.006617 -57.462266 
L 704.1978 -57.462266 
L 706.388983 -57.462266 
L 708.580167 -57.462266 
L 710.77135 -57.462266 
L 712.962533 -57.462266 
L 715.153716 -57.462266 
L 717.344899 -57.462266 
L 719.536083 -57.462266 
L 721.727266 -57.462266 
L 723.918449 -57.462266 
L 726.109632 -57.462266 
L 728.300815 -57.462266 
L 730.491998 -57.462266 
L 732.683182 -57.462266 
L 734.874365 -57.462266 
L 737.065548 -57.462266 
L 739.256731 -57.462266 
L 741.447914 -57.462266 
L 743.639098 -57.462266 
L 745.830281 -57.462266 
L 748.021464 -57.462266 
L 750.212647 -57.462266 
L 752.40383 -57.462266 
L 754.595014 -57.462266 
L 756.786197 -57.462266 
L 758.97738 -57.462266 
L 761.168563 -57.462266 
L 763.359746 -57.462266 
L 765.550929 -57.462266 
L 767.742113 -57.462266 
L 769.933296 -57.462266 
L 772.124479 -57.462266 
L 774.315662 -57.462266 
L 776.506845 -57.462266 
L 778.698029 -57.462266 
L 780.889212 -57.462266 
L 783.080395 -57.462266 
L 785.271578 -57.462266 
L 787.462761 -57.462266 
L 789.653945 -57.462266 
L 791.845128 -57.462266 
L 794.036311 -57.462266 
L 796.227494 -57.462266 
L 798.418677 -57.462266 
L 800.60986 -57.462266 
L 802.801044 -57.462266 
L 804.992227 -57.462266 
L 807.18341 -57.462266 
L 809.374593 -57.462266 
L 811.565776 -57.462266 
L 813.75696 -57.462266 
L 815.948143 -57.462266 
L 818.139326 -57.462266 
L 820.330509 -57.462266 
L 822.521692 -57.462266 
L 824.712876 -57.462266 
L 826.904059 -57.462266 
L 829.095242 -57.462266 
L 831.286425 -57.462266 
L 833.477608 -57.462266 
L 835.668792 -57.462266 
L 837.859975 -57.462266 
L 840.051158 -57.462266 
L 842.242341 -57.462266 
L 844.433524 -57.462266 
L 846.624707 -57.462266 
L 848.815891 -57.462266 
L 851.007074 -57.462266 
L 853.198257 -57.462266 
L 855.38944 -57.462266 
L 857.580623 -57.462266 
L 859.771807 -57.462266 
L 861.96299 -57.462266 
L 864.154173 -57.462266 
L 866.345356 -57.462266 
L 868.536539 -57.462266 
L 870.727723 -57.462266 
L 872.918906 -57.462266 
L 875.110089 -57.462266 
L 877.301272 -57.462266 
L 879.492455 -57.462266 
L 881.683638 -57.462266 
L 883.874822 -57.462266 
L 886.066005 -57.462266 
L 888.257188 -57.462266 
L 890.448371 -57.462266 
L 892.639554 -57.462266 
L 894.830738 -57.462266 
L 897.021921 -57.462266 
L 899.213104 -57.462266 
L 901.404287 -57.462266 
L 903.59547 -57.462266 
L 905.786654 -57.462266 
L 907.977837 -57.462266 
L 910.16902 -57.462266 
L 912.360203 -57.462266 
L 914.551386 -57.462266 
L 916.742569 -57.462266 
L 918.933753 -57.462266 
L 921.124936 -57.462266 
L 923.316119 -57.462266 
L 925.507302 -57.462266 
L 927.698485 -57.462266 
L 929.889669 -57.462266 
L 932.080852 -57.462266 
L 934.272035 -57.462266 
L 936.463218 -57.462266 
L 938.654401 -57.462266 
L 940.845585 -57.462266 
L 943.036768 -57.462266 
L 945.227951 -57.462266 
L 947.419134 -57.462266 
L 949.610317 -57.462266 
L 951.801501 -57.462266 
L 953.992684 -57.462266 
L 956.183867 -57.462266 
L 958.37505 -57.462266 
L 960.566233 -57.462266 
L 962.757416 -57.462266 
L 964.9486 -57.462266 
L 967.139783 -57.462266 
L 969.330966 -57.462266 
L 971.522149 -57.462266 
L 973.713332 -57.462266 
L 975.904516 -57.462266 
L 978.095699 -57.462266 
L 980.286882 -57.462266 
L 982.478065 -57.462266 
L 984.669248 -57.462266 
L 986.860432 -57.462266 
L 989.051615 -57.462266 
L 991.242798 -57.462266 
L 993.433981 -57.462266 
L 995.625164 -57.462266 
L 997.816347 -57.462266 
L 1000.007531 -57.462266 
L 1002.198714 -57.462266 
L 1004.389897 -57.462266 
L 1006.58108 -57.462266 
L 1008.772263 -57.462266 
L 1010.963447 -57.462266 
L 1013.15463 -57.462266 
L 1015.345813 -57.462266 
L 1017.536996 -57.462266 
L 1019.728179 -57.462266 
L 1021.919363 -57.462266 
L 1024.110546 -57.462266 
L 1026.301729 -57.462266 
L 1028.492912 -57.462266 
L 1030.684095 -57.462266 
L 1032.875278 -57.462266 
L 1035.066462 -57.462266 
L 1037.257645 -57.462266 
L 1039.448828 -57.462266 
L 1041.640011 -57.462266 
L 1043.831194 -57.462266 
L 1046.022378 -57.462266 
L 1048.213561 -57.462266 
L 1050.404744 -57.462266 
L 1052.595927 -57.462266 
L 1054.78711 -57.462266 
L 1056.978294 -57.462266 
L 1059.169477 -57.462266 
L 1061.36066 -57.462266 
L 1063.551843 -57.462266 
L 1065.743026 -57.462266 
L 1067.93421 -57.462266 
L 1070.125393 -57.462266 
L 1072.316576 -57.462266 
L 1074.507759 -57.462266 
L 1076.698942 -57.462266 
L 1078.890125 -57.462266 
L 1081.081309 -57.462266 
L 1083.272492 -57.462266 
L 1085.463675 -57.462266 
L 1087.654858 -57.462266 
L 1089.846041 -57.462266 
L 1092.037225 -57.462266 
L 1094.228408 -57.462266 
L 1096.419591 -57.462266 
L 1098.610774 -57.462266 
L 1098.610774 -57.656311 
L 1098.610774 -57.656311 
L 1096.419591 -57.705647 
L 1094.228408 -57.765919 
L 1092.037225 -57.839134 
L 1089.846041 -57.927565 
L 1087.654858 -58.033769 
L 1085.463675 -58.160596 
L 1083.272492 -58.3112 
L 1081.081309 -58.489034 
L 1078.890125 -58.69785 
L 1076.698942 -58.94168 
L 1074.507759 -59.224822 
L 1072.316576 -59.551805 
L 1070.125393 -59.927353 
L 1067.93421 -60.356339 
L 1065.743026 -60.843723 
L 1063.551843 -61.394497 
L 1061.36066 -62.013609 
L 1059.169477 -62.705885 
L 1056.978294 -63.475956 
L 1054.78711 -64.328168 
L 1052.595927 -65.266509 
L 1050.404744 -66.294526 
L 1048.213561 -67.415254 
L 1046.022378 -68.631154 
L 1043.831194 -69.944059 
L 1041.640011 -71.355136 
L 1039.448828 -72.864866 
L 1037.257645 -74.473035 
L 1035.066462 -76.178754 
L 1032.875278 -77.980492 
L 1030.684095 -79.876142 
L 1028.492912 -81.863095 
L 1026.301729 -83.938347 
L 1024.110546 -86.09863 
L 1021.919363 -88.34055 
L 1019.728179 -90.660757 
L 1017.536996 -93.056124 
L 1015.345813 -95.523939 
L 1013.15463 -98.062105 
L 1010.963447 -100.669349 
L 1008.772263 -103.345418 
L 1006.58108 -106.091275 
L 1004.389897 -108.909278 
L 1002.198714 -111.803332 
L 1000.007531 -114.779017 
L 997.816347 -117.843673 
L 995.625164 -121.006437 
L 993.433981 -124.278234 
L 991.242798 -127.671702 
L 989.051615 -131.201059 
L 986.860432 -134.881894 
L 984.669248 -138.730901 
L 982.478065 -142.765537 
L 980.286882 -147.003626 
L 978.095699 -151.462898 
L 975.904516 -156.160486 
L 973.713332 -161.112396 
L 971.522149 -166.33294 
L 969.330966 -171.834184 
L 967.139783 -177.625395 
L 964.9486 -183.712524 
L 962.757416 -190.097743 
L 960.566233 -196.779036 
L 958.37505 -203.749881 
L 956.183867 -210.999014 
L 953.992684 -218.510306 
L 951.801501 -226.262736 
L 949.610317 -234.230485 
L 947.419134 -242.383132 
L 945.227951 -250.685958 
L 943.036768 -259.100349 
L 940.845585 -267.584282 
L 938.654401 -276.092885 
L 936.463218 -284.579059 
L 934.272035 -292.994142 
L 932.080852 -301.288602 
L 929.889669 -309.412742 
L 927.698485 -317.317408 
L 925.507302 -324.954669 
L 923.316119 -332.278482 
L 921.124936 -339.245309 
L 918.933753 -345.814686 
L 916.742569 -351.949731 
L 914.551386 -357.617591 
L 912.360203 -362.789814 
L 910.16902 -367.442639 
L 907.977837 -371.557216 
L 905.786654 -375.119736 
L 903.59547 -378.121473 
L 901.404287 -380.558752 
L 899.213104 -382.432823 
L 897.021921 -383.749665 
L 894.830738 -384.51971 
L 892.639554 -384.757504 
L 890.448371 -384.48131 
L 888.257188 -383.712664 
L 886.066005 -382.475899 
L 883.874822 -380.797652 
L 881.683638 -378.706357 
L 879.492455 -376.231757 
L 877.301272 -373.404437 
L 875.110089 -370.255385 
L 872.918906 -366.815614 
L 870.727723 -363.115825 
L 868.536539 -359.186139 
L 866.345356 -355.055886 
L 864.154173 -350.753462 
L 861.96299 -346.306237 
L 859.771807 -341.740518 
L 857.580623 -337.081554 
L 855.38944 -332.353567 
L 853.198257 -327.579805 
L 851.007074 -322.782598 
L 848.815891 -317.98341 
L 846.624707 -313.20287 
L 844.433524 -308.460773 
L 842.242341 -303.776052 
L 840.051158 -299.166703 
L 837.859975 -294.64967 
L 835.668792 -290.240695 
L 833.477608 -285.954115 
L 831.286425 -281.802647 
L 829.095242 -277.797133 
L 826.904059 -273.946287 
L 824.712876 -270.256432 
L 822.521692 -266.731257 
L 820.330509 -263.371599 
L 818.139326 -260.175261 
L 815.948143 -257.136887 
L 813.75696 -254.247896 
L 811.565776 -251.496483 
L 809.374593 -248.86771 
L 807.18341 -246.343665 
L 804.992227 -243.903712 
L 802.801044 -241.524818 
L 800.60986 -239.181959 
L 798.418677 -236.848594 
L 796.227494 -234.497196 
L 794.036311 -232.09983 
L 791.845128 -229.628759 
L 789.653945 -227.057069 
L 787.462761 -224.359289 
L 785.271578 -221.51199 
L 783.080395 -218.494348 
L 780.889212 -215.288654 
L 778.698029 -211.880753 
L 776.506845 -208.260405 
L 774.315662 -204.421554 
L 772.124479 -200.362493 
L 769.933296 -196.085935 
L 767.742113 -191.598971 
L 765.550929 -186.912932 
L 763.359746 -182.043148 
L 761.168563 -177.008622 
L 758.97738 -171.831624 
L 756.786197 -166.537219 
L 754.595014 -161.152743 
L 752.40383 -155.707237 
L 750.212647 -150.230866 
L 748.021464 -144.754331 
L 745.830281 -139.308285 
L 743.639098 -133.922778 
L 741.447914 -128.626737 
L 739.256731 -123.447487 
L 737.065548 -118.410343 
L 734.874365 -113.53825 
L 732.683182 -108.851501 
L 730.491998 -104.367528 
L 728.300815 -100.100759 
L 726.109632 -96.062551 
L 723.918449 -92.261191 
L 721.727266 -88.701958 
L 719.536083 -85.387243 
L 717.344899 -82.31672 
L 715.153716 -79.487556 
L 712.962533 -76.894659 
L 710.77135 -74.530943 
L 708.580167 -72.387617 
L 706.388983 -70.454475 
L 704.1978 -68.72019 
L 702.006617 -67.172597 
L 699.815434 -65.798965 
L 697.624251 -64.586252 
L 695.433067 -63.521331 
L 693.241884 -62.5912 
L 691.050701 -61.783157 
L 688.859518 -61.084948 
L 686.668335 -60.484893 
L 684.477151 -59.971975 
L 682.285968 -59.535908 
L 680.094785 -59.167186 
L 677.903602 -58.857098 
L 675.712419 -58.597739 
L 673.521236 -58.381989 
L 671.330052 -58.203495 
L 669.138869 -58.05663 
L 666.947686 -57.936451 
L 664.756503 -57.838648 
L 662.56532 -57.759493 
z
" style="stroke: #0000ff"/>
    </defs>
    <g clip-path="url(#p4a9a752417)">
     <use xlink:href="#m3073a5a58f" x="0" y="408.322266" style="fill: #0000ff; fill-opacity: 0.1; stroke: #0000ff"/>
    </g>
   </g>
   <g id="patch_6">
    <path d="M 635.763047 350.86 
L 635.763047 7.2 
" style="fill: none; stroke: #262626; stroke-width: 1.25; stroke-linejoin: miter; stroke-linecap: square"/>
   </g>
   <g id="patch_7">
    <path d="M 640.763047 355.86 
L 1120.413047 355.86 
" style="fill: none; stroke: #262626; stroke-width: 1.25; stroke-linejoin: miter; stroke-linecap: square"/>
   </g>
  </g>
 </g>
 <defs>
  <clipPath id="p6de8f265a6">
   <rect x="74.483047" y="7.2" width="479.65" height="343.66"/>
  </clipPath>
  <clipPath id="p4a9a752417">
   <rect x="640.763047" y="7.2" width="479.65" height="343.66"/>
  </clipPath>
 </defs>
</svg>
