<?xml version="1.0" encoding="utf-8" standalone="no"?>
<!DOCTYPE svg PUBLIC "-//W3C//DTD SVG 1.1//EN"
  "http://www.w3.org/Graphics/SVG/1.1/DTD/svg11.dtd">
<svg xmlns:xlink="http://www.w3.org/1999/xlink" width="576pt" height="432pt" viewBox="0 0 576 432" xmlns="http://www.w3.org/2000/svg" version="1.1">
 <metadata>
  <rdf:RDF xmlns:dc="http://purl.org/dc/elements/1.1/" xmlns:cc="http://creativecommons.org/ns#" xmlns:rdf="http://www.w3.org/1999/02/22-rdf-syntax-ns#">
   <cc:Work>
    <dc:type rdf:resource="http://purl.org/dc/dcmitype/StillImage"/>
    <dc:date>2023-05-09T23:13:49.199916</dc:date>
    <dc:format>image/svg+xml</dc:format>
    <dc:creator>
     <cc:Agent>
      <dc:title>Matplotlib v3.5.1, https://matplotlib.org/</dc:title>
     </cc:Agent>
    </dc:creator>
   </cc:Work>
  </rdf:RDF>
 </metadata>
 <defs>
  <style type="text/css">*{stroke-linejoin: round; stroke-linecap: butt}</style>
 </defs>
 <g id="figure_1">
  <g id="patch_1">
   <path d="M 0 432 
L 576 432 
L 576 0 
L 0 0 
z
" style="fill: #ffffff"/>
  </g>
  <g id="axes_1">
   <g id="patch_2">
    <path d="M 72 384.48 
L 518.4 384.48 
L 518.4 51.84 
L 72 51.84 
z
" style="fill: #ffffff"/>
   </g>
   <g id="matplotlib.axis_1">
    <g id="xtick_1">
     <g id="line2d_1">
      <defs>
       <path id="m0bec2043c0" d="M 0 0 
L 0 6 
" style="stroke: #262626; stroke-width: 1.25"/>
      </defs>
      <g>
       <use xlink:href="#m0bec2043c0" x="96.085016" y="384.48" style="fill: #262626; stroke: #262626; stroke-width: 1.25"/>
      </g>
     </g>
     <g id="text_1">
      <!-- 30 -->
      <g style="fill: #262626" transform="translate(89.967985 401.853594)scale(0.11 -0.11)">
       <defs>
        <path id="ArialMT-33" d="M 269 1209 
L 831 1284 
Q 928 806 1161 595 
Q 1394 384 1728 384 
Q 2125 384 2398 659 
Q 2672 934 2672 1341 
Q 2672 1728 2419 1979 
Q 2166 2231 1775 2231 
Q 1616 2231 1378 2169 
L 1441 2663 
Q 1497 2656 1531 2656 
Q 1891 2656 2178 2843 
Q 2466 3031 2466 3422 
Q 2466 3731 2256 3934 
Q 2047 4138 1716 4138 
Q 1388 4138 1169 3931 
Q 950 3725 888 3313 
L 325 3413 
Q 428 3978 793 4289 
Q 1159 4600 1703 4600 
Q 2078 4600 2393 4439 
Q 2709 4278 2876 4000 
Q 3044 3722 3044 3409 
Q 3044 3113 2884 2869 
Q 2725 2625 2413 2481 
Q 2819 2388 3044 2092 
Q 3269 1797 3269 1353 
Q 3269 753 2831 336 
Q 2394 -81 1725 -81 
Q 1122 -81 723 278 
Q 325 638 269 1209 
z
" transform="scale(0.015625)"/>
        <path id="ArialMT-30" d="M 266 2259 
Q 266 3072 433 3567 
Q 600 4063 929 4331 
Q 1259 4600 1759 4600 
Q 2128 4600 2406 4451 
Q 2684 4303 2865 4023 
Q 3047 3744 3150 3342 
Q 3253 2941 3253 2259 
Q 3253 1453 3087 958 
Q 2922 463 2592 192 
Q 2263 -78 1759 -78 
Q 1097 -78 719 397 
Q 266 969 266 2259 
z
M 844 2259 
Q 844 1131 1108 757 
Q 1372 384 1759 384 
Q 2147 384 2411 759 
Q 2675 1134 2675 2259 
Q 2675 3391 2411 3762 
Q 2147 4134 1753 4134 
Q 1366 4134 1134 3806 
Q 844 3388 844 2259 
z
" transform="scale(0.015625)"/>
       </defs>
       <use xlink:href="#ArialMT-33"/>
       <use xlink:href="#ArialMT-30" x="55.615234"/>
      </g>
     </g>
    </g>
    <g id="xtick_2">
     <g id="line2d_2">
      <g>
       <use xlink:href="#m0bec2043c0" x="153.805718" y="384.48" style="fill: #262626; stroke: #262626; stroke-width: 1.25"/>
      </g>
     </g>
     <g id="text_2">
      <!-- 40 -->
      <g style="fill: #262626" transform="translate(147.688687 401.853594)scale(0.11 -0.11)">
       <defs>
        <path id="ArialMT-34" d="M 2069 0 
L 2069 1097 
L 81 1097 
L 81 1613 
L 2172 4581 
L 2631 4581 
L 2631 1613 
L 3250 1613 
L 3250 1097 
L 2631 1097 
L 2631 0 
L 2069 0 
z
M 2069 1613 
L 2069 3678 
L 634 1613 
L 2069 1613 
z
" transform="scale(0.015625)"/>
       </defs>
       <use xlink:href="#ArialMT-34"/>
       <use xlink:href="#ArialMT-30" x="55.615234"/>
      </g>
     </g>
    </g>
    <g id="xtick_3">
     <g id="line2d_3">
      <g>
       <use xlink:href="#m0bec2043c0" x="211.52642" y="384.48" style="fill: #262626; stroke: #262626; stroke-width: 1.25"/>
      </g>
     </g>
     <g id="text_3">
      <!-- 50 -->
      <g style="fill: #262626" transform="translate(205.409389 401.853594)scale(0.11 -0.11)">
       <defs>
        <path id="ArialMT-35" d="M 266 1200 
L 856 1250 
Q 922 819 1161 601 
Q 1400 384 1738 384 
Q 2144 384 2425 690 
Q 2706 997 2706 1503 
Q 2706 1984 2436 2262 
Q 2166 2541 1728 2541 
Q 1456 2541 1237 2417 
Q 1019 2294 894 2097 
L 366 2166 
L 809 4519 
L 3088 4519 
L 3088 3981 
L 1259 3981 
L 1013 2750 
Q 1425 3038 1878 3038 
Q 2478 3038 2890 2622 
Q 3303 2206 3303 1553 
Q 3303 931 2941 478 
Q 2500 -78 1738 -78 
Q 1113 -78 717 272 
Q 322 622 266 1200 
z
" transform="scale(0.015625)"/>
       </defs>
       <use xlink:href="#ArialMT-35"/>
       <use xlink:href="#ArialMT-30" x="55.615234"/>
      </g>
     </g>
    </g>
    <g id="xtick_4">
     <g id="line2d_4">
      <g>
       <use xlink:href="#m0bec2043c0" x="269.247122" y="384.48" style="fill: #262626; stroke: #262626; stroke-width: 1.25"/>
      </g>
     </g>
     <g id="text_4">
      <!-- 60 -->
      <g style="fill: #262626" transform="translate(263.130091 401.853594)scale(0.11 -0.11)">
       <defs>
        <path id="ArialMT-36" d="M 3184 3459 
L 2625 3416 
Q 2550 3747 2413 3897 
Q 2184 4138 1850 4138 
Q 1581 4138 1378 3988 
Q 1113 3794 959 3422 
Q 806 3050 800 2363 
Q 1003 2672 1297 2822 
Q 1591 2972 1913 2972 
Q 2475 2972 2870 2558 
Q 3266 2144 3266 1488 
Q 3266 1056 3080 686 
Q 2894 316 2569 119 
Q 2244 -78 1831 -78 
Q 1128 -78 684 439 
Q 241 956 241 2144 
Q 241 3472 731 4075 
Q 1159 4600 1884 4600 
Q 2425 4600 2770 4297 
Q 3116 3994 3184 3459 
z
M 888 1484 
Q 888 1194 1011 928 
Q 1134 663 1356 523 
Q 1578 384 1822 384 
Q 2178 384 2434 671 
Q 2691 959 2691 1453 
Q 2691 1928 2437 2201 
Q 2184 2475 1800 2475 
Q 1419 2475 1153 2201 
Q 888 1928 888 1484 
z
" transform="scale(0.015625)"/>
       </defs>
       <use xlink:href="#ArialMT-36"/>
       <use xlink:href="#ArialMT-30" x="55.615234"/>
      </g>
     </g>
    </g>
    <g id="xtick_5">
     <g id="line2d_5">
      <g>
       <use xlink:href="#m0bec2043c0" x="326.967824" y="384.48" style="fill: #262626; stroke: #262626; stroke-width: 1.25"/>
      </g>
     </g>
     <g id="text_5">
      <!-- 70 -->
      <g style="fill: #262626" transform="translate(320.850793 401.853594)scale(0.11 -0.11)">
       <defs>
        <path id="ArialMT-37" d="M 303 3981 
L 303 4522 
L 3269 4522 
L 3269 4084 
Q 2831 3619 2401 2847 
Q 1972 2075 1738 1259 
Q 1569 684 1522 0 
L 944 0 
Q 953 541 1156 1306 
Q 1359 2072 1739 2783 
Q 2119 3494 2547 3981 
L 303 3981 
z
" transform="scale(0.015625)"/>
       </defs>
       <use xlink:href="#ArialMT-37"/>
       <use xlink:href="#ArialMT-30" x="55.615234"/>
      </g>
     </g>
    </g>
    <g id="xtick_6">
     <g id="line2d_6">
      <g>
       <use xlink:href="#m0bec2043c0" x="384.688526" y="384.48" style="fill: #262626; stroke: #262626; stroke-width: 1.25"/>
      </g>
     </g>
     <g id="text_6">
      <!-- 80 -->
      <g style="fill: #262626" transform="translate(378.571495 401.853594)scale(0.11 -0.11)">
       <defs>
        <path id="ArialMT-38" d="M 1131 2484 
Q 781 2613 612 2850 
Q 444 3088 444 3419 
Q 444 3919 803 4259 
Q 1163 4600 1759 4600 
Q 2359 4600 2725 4251 
Q 3091 3903 3091 3403 
Q 3091 3084 2923 2848 
Q 2756 2613 2416 2484 
Q 2838 2347 3058 2040 
Q 3278 1734 3278 1309 
Q 3278 722 2862 322 
Q 2447 -78 1769 -78 
Q 1091 -78 675 323 
Q 259 725 259 1325 
Q 259 1772 486 2073 
Q 713 2375 1131 2484 
z
M 1019 3438 
Q 1019 3113 1228 2906 
Q 1438 2700 1772 2700 
Q 2097 2700 2305 2904 
Q 2513 3109 2513 3406 
Q 2513 3716 2298 3927 
Q 2084 4138 1766 4138 
Q 1444 4138 1231 3931 
Q 1019 3725 1019 3438 
z
M 838 1322 
Q 838 1081 952 856 
Q 1066 631 1291 507 
Q 1516 384 1775 384 
Q 2178 384 2440 643 
Q 2703 903 2703 1303 
Q 2703 1709 2433 1975 
Q 2163 2241 1756 2241 
Q 1359 2241 1098 1978 
Q 838 1716 838 1322 
z
" transform="scale(0.015625)"/>
       </defs>
       <use xlink:href="#ArialMT-38"/>
       <use xlink:href="#ArialMT-30" x="55.615234"/>
      </g>
     </g>
    </g>
    <g id="xtick_7">
     <g id="line2d_7">
      <g>
       <use xlink:href="#m0bec2043c0" x="442.409228" y="384.48" style="fill: #262626; stroke: #262626; stroke-width: 1.25"/>
      </g>
     </g>
     <g id="text_7">
      <!-- 90 -->
      <g style="fill: #262626" transform="translate(436.292197 401.853594)scale(0.11 -0.11)">
       <defs>
        <path id="ArialMT-39" d="M 350 1059 
L 891 1109 
Q 959 728 1153 556 
Q 1347 384 1650 384 
Q 1909 384 2104 503 
Q 2300 622 2425 820 
Q 2550 1019 2634 1356 
Q 2719 1694 2719 2044 
Q 2719 2081 2716 2156 
Q 2547 1888 2255 1720 
Q 1963 1553 1622 1553 
Q 1053 1553 659 1965 
Q 266 2378 266 3053 
Q 266 3750 677 4175 
Q 1088 4600 1706 4600 
Q 2153 4600 2523 4359 
Q 2894 4119 3086 3673 
Q 3278 3228 3278 2384 
Q 3278 1506 3087 986 
Q 2897 466 2520 194 
Q 2144 -78 1638 -78 
Q 1100 -78 759 220 
Q 419 519 350 1059 
z
M 2653 3081 
Q 2653 3566 2395 3850 
Q 2138 4134 1775 4134 
Q 1400 4134 1122 3828 
Q 844 3522 844 3034 
Q 844 2597 1108 2323 
Q 1372 2050 1759 2050 
Q 2150 2050 2401 2323 
Q 2653 2597 2653 3081 
z
" transform="scale(0.015625)"/>
       </defs>
       <use xlink:href="#ArialMT-39"/>
       <use xlink:href="#ArialMT-30" x="55.615234"/>
      </g>
     </g>
    </g>
    <g id="xtick_8">
     <g id="line2d_8">
      <g>
       <use xlink:href="#m0bec2043c0" x="500.12993" y="384.48" style="fill: #262626; stroke: #262626; stroke-width: 1.25"/>
      </g>
     </g>
     <g id="text_8">
      <!-- 100 -->
      <g style="fill: #262626" transform="translate(490.954383 401.853594)scale(0.11 -0.11)">
       <defs>
        <path id="ArialMT-31" d="M 2384 0 
L 1822 0 
L 1822 3584 
Q 1619 3391 1289 3197 
Q 959 3003 697 2906 
L 697 3450 
Q 1169 3672 1522 3987 
Q 1875 4303 2022 4600 
L 2384 4600 
L 2384 0 
z
" transform="scale(0.015625)"/>
       </defs>
       <use xlink:href="#ArialMT-31"/>
       <use xlink:href="#ArialMT-30" x="55.615234"/>
       <use xlink:href="#ArialMT-30" x="111.230469"/>
      </g>
     </g>
    </g>
    <g id="text_9">
     <!-- age -->
     <g style="fill: #262626" transform="translate(285.190313 416.488594)scale(0.12 -0.12)">
      <defs>
       <path id="ArialMT-61" d="M 2588 409 
Q 2275 144 1986 34 
Q 1697 -75 1366 -75 
Q 819 -75 525 192 
Q 231 459 231 875 
Q 231 1119 342 1320 
Q 453 1522 633 1644 
Q 813 1766 1038 1828 
Q 1203 1872 1538 1913 
Q 2219 1994 2541 2106 
Q 2544 2222 2544 2253 
Q 2544 2597 2384 2738 
Q 2169 2928 1744 2928 
Q 1347 2928 1158 2789 
Q 969 2650 878 2297 
L 328 2372 
Q 403 2725 575 2942 
Q 747 3159 1072 3276 
Q 1397 3394 1825 3394 
Q 2250 3394 2515 3294 
Q 2781 3194 2906 3042 
Q 3031 2891 3081 2659 
Q 3109 2516 3109 2141 
L 3109 1391 
Q 3109 606 3145 398 
Q 3181 191 3288 0 
L 2700 0 
Q 2613 175 2588 409 
z
M 2541 1666 
Q 2234 1541 1622 1453 
Q 1275 1403 1131 1340 
Q 988 1278 909 1158 
Q 831 1038 831 891 
Q 831 666 1001 516 
Q 1172 366 1500 366 
Q 1825 366 2078 508 
Q 2331 650 2450 897 
Q 2541 1088 2541 1459 
L 2541 1666 
z
" transform="scale(0.015625)"/>
       <path id="ArialMT-67" d="M 319 -275 
L 866 -356 
Q 900 -609 1056 -725 
Q 1266 -881 1628 -881 
Q 2019 -881 2231 -725 
Q 2444 -569 2519 -288 
Q 2563 -116 2559 434 
Q 2191 0 1641 0 
Q 956 0 581 494 
Q 206 988 206 1678 
Q 206 2153 378 2554 
Q 550 2956 876 3175 
Q 1203 3394 1644 3394 
Q 2231 3394 2613 2919 
L 2613 3319 
L 3131 3319 
L 3131 450 
Q 3131 -325 2973 -648 
Q 2816 -972 2473 -1159 
Q 2131 -1347 1631 -1347 
Q 1038 -1347 672 -1080 
Q 306 -813 319 -275 
z
M 784 1719 
Q 784 1066 1043 766 
Q 1303 466 1694 466 
Q 2081 466 2343 764 
Q 2606 1063 2606 1700 
Q 2606 2309 2336 2618 
Q 2066 2928 1684 2928 
Q 1309 2928 1046 2623 
Q 784 2319 784 1719 
z
" transform="scale(0.015625)"/>
       <path id="ArialMT-65" d="M 2694 1069 
L 3275 997 
Q 3138 488 2766 206 
Q 2394 -75 1816 -75 
Q 1088 -75 661 373 
Q 234 822 234 1631 
Q 234 2469 665 2931 
Q 1097 3394 1784 3394 
Q 2450 3394 2872 2941 
Q 3294 2488 3294 1666 
Q 3294 1616 3291 1516 
L 816 1516 
Q 847 969 1125 678 
Q 1403 388 1819 388 
Q 2128 388 2347 550 
Q 2566 713 2694 1069 
z
M 847 1978 
L 2700 1978 
Q 2663 2397 2488 2606 
Q 2219 2931 1791 2931 
Q 1403 2931 1139 2672 
Q 875 2413 847 1978 
z
" transform="scale(0.015625)"/>
      </defs>
      <use xlink:href="#ArialMT-61"/>
      <use xlink:href="#ArialMT-67" x="55.615234"/>
      <use xlink:href="#ArialMT-65" x="111.230469"/>
     </g>
    </g>
   </g>
   <g id="matplotlib.axis_2">
    <g id="ytick_1">
     <g id="line2d_9">
      <defs>
       <path id="m180fd78f9b" d="M 0 0 
L -6 0 
" style="stroke: #262626; stroke-width: 1.25"/>
      </defs>
      <g>
       <use xlink:href="#m180fd78f9b" x="72" y="384.48" style="fill: #262626; stroke: #262626; stroke-width: 1.25"/>
      </g>
     </g>
     <g id="text_10">
      <!-- 0.00 -->
      <g style="fill: #262626" transform="translate(41.092969 388.416797)scale(0.11 -0.11)">
       <defs>
        <path id="ArialMT-2e" d="M 581 0 
L 581 641 
L 1222 641 
L 1222 0 
L 581 0 
z
" transform="scale(0.015625)"/>
       </defs>
       <use xlink:href="#ArialMT-30"/>
       <use xlink:href="#ArialMT-2e" x="55.615234"/>
       <use xlink:href="#ArialMT-30" x="83.398438"/>
       <use xlink:href="#ArialMT-30" x="139.013672"/>
      </g>
     </g>
    </g>
    <g id="ytick_2">
     <g id="line2d_10">
      <g>
       <use xlink:href="#m180fd78f9b" x="72" y="331.382556" style="fill: #262626; stroke: #262626; stroke-width: 1.25"/>
      </g>
     </g>
     <g id="text_11">
      <!-- 0.01 -->
      <g style="fill: #262626" transform="translate(41.092969 335.319353)scale(0.11 -0.11)">
       <use xlink:href="#ArialMT-30"/>
       <use xlink:href="#ArialMT-2e" x="55.615234"/>
       <use xlink:href="#ArialMT-30" x="83.398438"/>
       <use xlink:href="#ArialMT-31" x="139.013672"/>
      </g>
     </g>
    </g>
    <g id="ytick_3">
     <g id="line2d_11">
      <g>
       <use xlink:href="#m180fd78f9b" x="72" y="278.285113" style="fill: #262626; stroke: #262626; stroke-width: 1.25"/>
      </g>
     </g>
     <g id="text_12">
      <!-- 0.02 -->
      <g style="fill: #262626" transform="translate(41.092969 282.22191)scale(0.11 -0.11)">
       <defs>
        <path id="ArialMT-32" d="M 3222 541 
L 3222 0 
L 194 0 
Q 188 203 259 391 
Q 375 700 629 1000 
Q 884 1300 1366 1694 
Q 2113 2306 2375 2664 
Q 2638 3022 2638 3341 
Q 2638 3675 2398 3904 
Q 2159 4134 1775 4134 
Q 1369 4134 1125 3890 
Q 881 3647 878 3216 
L 300 3275 
Q 359 3922 746 4261 
Q 1134 4600 1788 4600 
Q 2447 4600 2831 4234 
Q 3216 3869 3216 3328 
Q 3216 3053 3103 2787 
Q 2991 2522 2730 2228 
Q 2469 1934 1863 1422 
Q 1356 997 1212 845 
Q 1069 694 975 541 
L 3222 541 
z
" transform="scale(0.015625)"/>
       </defs>
       <use xlink:href="#ArialMT-30"/>
       <use xlink:href="#ArialMT-2e" x="55.615234"/>
       <use xlink:href="#ArialMT-30" x="83.398438"/>
       <use xlink:href="#ArialMT-32" x="139.013672"/>
      </g>
     </g>
    </g>
    <g id="ytick_4">
     <g id="line2d_12">
      <g>
       <use xlink:href="#m180fd78f9b" x="72" y="225.187669" style="fill: #262626; stroke: #262626; stroke-width: 1.25"/>
      </g>
     </g>
     <g id="text_13">
      <!-- 0.03 -->
      <g style="fill: #262626" transform="translate(41.092969 229.124466)scale(0.11 -0.11)">
       <use xlink:href="#ArialMT-30"/>
       <use xlink:href="#ArialMT-2e" x="55.615234"/>
       <use xlink:href="#ArialMT-30" x="83.398438"/>
       <use xlink:href="#ArialMT-33" x="139.013672"/>
      </g>
     </g>
    </g>
    <g id="ytick_5">
     <g id="line2d_13">
      <g>
       <use xlink:href="#m180fd78f9b" x="72" y="172.090225" style="fill: #262626; stroke: #262626; stroke-width: 1.25"/>
      </g>
     </g>
     <g id="text_14">
      <!-- 0.04 -->
      <g style="fill: #262626" transform="translate(41.092969 176.027022)scale(0.11 -0.11)">
       <use xlink:href="#ArialMT-30"/>
       <use xlink:href="#ArialMT-2e" x="55.615234"/>
       <use xlink:href="#ArialMT-30" x="83.398438"/>
       <use xlink:href="#ArialMT-34" x="139.013672"/>
      </g>
     </g>
    </g>
    <g id="ytick_6">
     <g id="line2d_14">
      <g>
       <use xlink:href="#m180fd78f9b" x="72" y="118.992782" style="fill: #262626; stroke: #262626; stroke-width: 1.25"/>
      </g>
     </g>
     <g id="text_15">
      <!-- 0.05 -->
      <g style="fill: #262626" transform="translate(41.092969 122.929579)scale(0.11 -0.11)">
       <use xlink:href="#ArialMT-30"/>
       <use xlink:href="#ArialMT-2e" x="55.615234"/>
       <use xlink:href="#ArialMT-30" x="83.398438"/>
       <use xlink:href="#ArialMT-35" x="139.013672"/>
      </g>
     </g>
    </g>
    <g id="ytick_7">
     <g id="line2d_15">
      <g>
       <use xlink:href="#m180fd78f9b" x="72" y="65.895338" style="fill: #262626; stroke: #262626; stroke-width: 1.25"/>
      </g>
     </g>
     <g id="text_16">
      <!-- 0.06 -->
      <g style="fill: #262626" transform="translate(41.092969 69.832135)scale(0.11 -0.11)">
       <use xlink:href="#ArialMT-30"/>
       <use xlink:href="#ArialMT-2e" x="55.615234"/>
       <use xlink:href="#ArialMT-30" x="83.398438"/>
       <use xlink:href="#ArialMT-36" x="139.013672"/>
      </g>
     </g>
    </g>
    <g id="text_17">
     <!-- Density -->
     <g style="fill: #262626" transform="translate(34.567344 238.16625)rotate(-90)scale(0.12 -0.12)">
      <defs>
       <path id="ArialMT-44" d="M 494 0 
L 494 4581 
L 2072 4581 
Q 2606 4581 2888 4516 
Q 3281 4425 3559 4188 
Q 3922 3881 4101 3404 
Q 4281 2928 4281 2316 
Q 4281 1794 4159 1391 
Q 4038 988 3847 723 
Q 3656 459 3429 307 
Q 3203 156 2883 78 
Q 2563 0 2147 0 
L 494 0 
z
M 1100 541 
L 2078 541 
Q 2531 541 2789 625 
Q 3047 709 3200 863 
Q 3416 1078 3536 1442 
Q 3656 1806 3656 2325 
Q 3656 3044 3420 3430 
Q 3184 3816 2847 3947 
Q 2603 4041 2063 4041 
L 1100 4041 
L 1100 541 
z
" transform="scale(0.015625)"/>
       <path id="ArialMT-6e" d="M 422 0 
L 422 3319 
L 928 3319 
L 928 2847 
Q 1294 3394 1984 3394 
Q 2284 3394 2536 3286 
Q 2788 3178 2913 3003 
Q 3038 2828 3088 2588 
Q 3119 2431 3119 2041 
L 3119 0 
L 2556 0 
L 2556 2019 
Q 2556 2363 2490 2533 
Q 2425 2703 2258 2804 
Q 2091 2906 1866 2906 
Q 1506 2906 1245 2678 
Q 984 2450 984 1813 
L 984 0 
L 422 0 
z
" transform="scale(0.015625)"/>
       <path id="ArialMT-73" d="M 197 991 
L 753 1078 
Q 800 744 1014 566 
Q 1228 388 1613 388 
Q 2000 388 2187 545 
Q 2375 703 2375 916 
Q 2375 1106 2209 1216 
Q 2094 1291 1634 1406 
Q 1016 1563 777 1677 
Q 538 1791 414 1992 
Q 291 2194 291 2438 
Q 291 2659 392 2848 
Q 494 3038 669 3163 
Q 800 3259 1026 3326 
Q 1253 3394 1513 3394 
Q 1903 3394 2198 3281 
Q 2494 3169 2634 2976 
Q 2775 2784 2828 2463 
L 2278 2388 
Q 2241 2644 2061 2787 
Q 1881 2931 1553 2931 
Q 1166 2931 1000 2803 
Q 834 2675 834 2503 
Q 834 2394 903 2306 
Q 972 2216 1119 2156 
Q 1203 2125 1616 2013 
Q 2213 1853 2448 1751 
Q 2684 1650 2818 1456 
Q 2953 1263 2953 975 
Q 2953 694 2789 445 
Q 2625 197 2315 61 
Q 2006 -75 1616 -75 
Q 969 -75 630 194 
Q 291 463 197 991 
z
" transform="scale(0.015625)"/>
       <path id="ArialMT-69" d="M 425 3934 
L 425 4581 
L 988 4581 
L 988 3934 
L 425 3934 
z
M 425 0 
L 425 3319 
L 988 3319 
L 988 0 
L 425 0 
z
" transform="scale(0.015625)"/>
       <path id="ArialMT-74" d="M 1650 503 
L 1731 6 
Q 1494 -44 1306 -44 
Q 1000 -44 831 53 
Q 663 150 594 308 
Q 525 466 525 972 
L 525 2881 
L 113 2881 
L 113 3319 
L 525 3319 
L 525 4141 
L 1084 4478 
L 1084 3319 
L 1650 3319 
L 1650 2881 
L 1084 2881 
L 1084 941 
Q 1084 700 1114 631 
Q 1144 563 1211 522 
Q 1278 481 1403 481 
Q 1497 481 1650 503 
z
" transform="scale(0.015625)"/>
       <path id="ArialMT-79" d="M 397 -1278 
L 334 -750 
Q 519 -800 656 -800 
Q 844 -800 956 -737 
Q 1069 -675 1141 -563 
Q 1194 -478 1313 -144 
Q 1328 -97 1363 -6 
L 103 3319 
L 709 3319 
L 1400 1397 
Q 1534 1031 1641 628 
Q 1738 1016 1872 1384 
L 2581 3319 
L 3144 3319 
L 1881 -56 
Q 1678 -603 1566 -809 
Q 1416 -1088 1222 -1217 
Q 1028 -1347 759 -1347 
Q 597 -1347 397 -1278 
z
" transform="scale(0.015625)"/>
      </defs>
      <use xlink:href="#ArialMT-44"/>
      <use xlink:href="#ArialMT-65" x="72.216797"/>
      <use xlink:href="#ArialMT-6e" x="127.832031"/>
      <use xlink:href="#ArialMT-73" x="183.447266"/>
      <use xlink:href="#ArialMT-69" x="233.447266"/>
      <use xlink:href="#ArialMT-74" x="255.664062"/>
      <use xlink:href="#ArialMT-79" x="283.447266"/>
     </g>
    </g>
   </g>
   <g id="PolyCollection_1">
    <defs>
     <path id="m6deac04bf5" d="M 104.335859 -47.577563 
L 104.335859 -47.52 
L 106.081625 -47.52 
L 107.827392 -47.52 
L 109.573159 -47.52 
L 111.318925 -47.52 
L 113.064692 -47.52 
L 114.810459 -47.52 
L 116.556226 -47.52 
L 118.301992 -47.52 
L 120.047759 -47.52 
L 121.793526 -47.52 
L 123.539292 -47.52 
L 125.285059 -47.52 
L 127.030826 -47.52 
L 128.776592 -47.52 
L 130.522359 -47.52 
L 132.268126 -47.52 
L 134.013893 -47.52 
L 135.759659 -47.52 
L 137.505426 -47.52 
L 139.251193 -47.52 
L 140.996959 -47.52 
L 142.742726 -47.52 
L 144.488493 -47.52 
L 146.234259 -47.52 
L 147.980026 -47.52 
L 149.725793 -47.52 
L 151.47156 -47.52 
L 153.217326 -47.52 
L 154.963093 -47.52 
L 156.70886 -47.52 
L 158.454626 -47.52 
L 160.200393 -47.52 
L 161.94616 -47.52 
L 163.691927 -47.52 
L 165.437693 -47.52 
L 167.18346 -47.52 
L 168.929227 -47.52 
L 170.674993 -47.52 
L 172.42076 -47.52 
L 174.166527 -47.52 
L 175.912293 -47.52 
L 177.65806 -47.52 
L 179.403827 -47.52 
L 181.149594 -47.52 
L 182.89536 -47.52 
L 184.641127 -47.52 
L 186.386894 -47.52 
L 188.13266 -47.52 
L 189.878427 -47.52 
L 191.624194 -47.52 
L 193.36996 -47.52 
L 195.115727 -47.52 
L 196.861494 -47.52 
L 198.607261 -47.52 
L 200.353027 -47.52 
L 202.098794 -47.52 
L 203.844561 -47.52 
L 205.590327 -47.52 
L 207.336094 -47.52 
L 209.081861 -47.52 
L 210.827627 -47.52 
L 212.573394 -47.52 
L 214.319161 -47.52 
L 216.064928 -47.52 
L 217.810694 -47.52 
L 219.556461 -47.52 
L 221.302228 -47.52 
L 223.047994 -47.52 
L 224.793761 -47.52 
L 226.539528 -47.52 
L 228.285295 -47.52 
L 230.031061 -47.52 
L 231.776828 -47.52 
L 233.522595 -47.52 
L 235.268361 -47.52 
L 237.014128 -47.52 
L 238.759895 -47.52 
L 240.505661 -47.52 
L 242.251428 -47.52 
L 243.997195 -47.52 
L 245.742962 -47.52 
L 247.488728 -47.52 
L 249.234495 -47.52 
L 250.980262 -47.52 
L 252.726028 -47.52 
L 254.471795 -47.52 
L 256.217562 -47.52 
L 257.963328 -47.52 
L 259.709095 -47.52 
L 261.454862 -47.52 
L 263.200629 -47.52 
L 264.946395 -47.52 
L 266.692162 -47.52 
L 268.437929 -47.52 
L 270.183695 -47.52 
L 271.929462 -47.52 
L 273.675229 -47.52 
L 275.420995 -47.52 
L 277.166762 -47.52 
L 278.912529 -47.52 
L 280.658296 -47.52 
L 282.404062 -47.52 
L 284.149829 -47.52 
L 285.895596 -47.52 
L 287.641362 -47.52 
L 289.387129 -47.52 
L 291.132896 -47.52 
L 292.878663 -47.52 
L 294.624429 -47.52 
L 296.370196 -47.52 
L 298.115963 -47.52 
L 299.861729 -47.52 
L 301.607496 -47.52 
L 303.353263 -47.52 
L 305.099029 -47.52 
L 306.844796 -47.52 
L 308.590563 -47.52 
L 310.33633 -47.52 
L 312.082096 -47.52 
L 313.827863 -47.52 
L 315.57363 -47.52 
L 317.319396 -47.52 
L 319.065163 -47.52 
L 320.81093 -47.52 
L 322.556696 -47.52 
L 324.302463 -47.52 
L 326.04823 -47.52 
L 327.793997 -47.52 
L 329.539763 -47.52 
L 331.28553 -47.52 
L 333.031297 -47.52 
L 334.777063 -47.52 
L 336.52283 -47.52 
L 338.268597 -47.52 
L 340.014363 -47.52 
L 341.76013 -47.52 
L 343.505897 -47.52 
L 345.251664 -47.52 
L 346.99743 -47.52 
L 348.743197 -47.52 
L 350.488964 -47.52 
L 352.23473 -47.52 
L 353.980497 -47.52 
L 355.726264 -47.52 
L 357.472031 -47.52 
L 359.217797 -47.52 
L 360.963564 -47.52 
L 362.709331 -47.52 
L 364.455097 -47.52 
L 366.200864 -47.52 
L 367.946631 -47.52 
L 369.692397 -47.52 
L 371.438164 -47.52 
L 373.183931 -47.52 
L 374.929698 -47.52 
L 376.675464 -47.52 
L 378.421231 -47.52 
L 380.166998 -47.52 
L 381.912764 -47.52 
L 383.658531 -47.52 
L 385.404298 -47.52 
L 387.150064 -47.52 
L 388.895831 -47.52 
L 390.641598 -47.52 
L 392.387365 -47.52 
L 394.133131 -47.52 
L 395.878898 -47.52 
L 397.624665 -47.52 
L 399.370431 -47.52 
L 401.116198 -47.52 
L 402.861965 -47.52 
L 404.607731 -47.52 
L 406.353498 -47.52 
L 408.099265 -47.52 
L 409.845032 -47.52 
L 411.590798 -47.52 
L 413.336565 -47.52 
L 415.082332 -47.52 
L 416.828098 -47.52 
L 418.573865 -47.52 
L 420.319632 -47.52 
L 422.065399 -47.52 
L 423.811165 -47.52 
L 425.556932 -47.52 
L 427.302699 -47.52 
L 429.048465 -47.52 
L 430.794232 -47.52 
L 432.539999 -47.52 
L 434.285765 -47.52 
L 436.031532 -47.52 
L 437.777299 -47.52 
L 439.523066 -47.52 
L 441.268832 -47.52 
L 443.014599 -47.52 
L 444.760366 -47.52 
L 446.506132 -47.52 
L 448.251899 -47.52 
L 449.997666 -47.52 
L 451.743432 -47.52 
L 451.743432 -47.560186 
L 451.743432 -47.560186 
L 449.997666 -47.575693 
L 448.251899 -47.596392 
L 446.506132 -47.623717 
L 444.760366 -47.659393 
L 443.014599 -47.705462 
L 441.268832 -47.764303 
L 439.523066 -47.838645 
L 437.777299 -47.931561 
L 436.031532 -48.046459 
L 434.285765 -48.187043 
L 432.539999 -48.35727 
L 430.794232 -48.561285 
L 429.048465 -48.803344 
L 427.302699 -49.087732 
L 425.556932 -49.418672 
L 423.811165 -49.800245 
L 422.065399 -50.236319 
L 420.319632 -50.730503 
L 418.573865 -51.286129 
L 416.828098 -51.906272 
L 415.082332 -52.593815 
L 413.336565 -53.351553 
L 411.590798 -54.182341 
L 409.845032 -55.089273 
L 408.099265 -56.075889 
L 406.353498 -57.146383 
L 404.607731 -58.305806 
L 402.861965 -59.560237 
L 401.116198 -60.916904 
L 399.370431 -62.384231 
L 397.624665 -63.971819 
L 395.878898 -65.690317 
L 394.133131 -67.551208 
L 392.387365 -69.566516 
L 390.641598 -71.748424 
L 388.895831 -74.108849 
L 387.150064 -76.658995 
L 385.404298 -79.408895 
L 383.658531 -82.36701 
L 381.912764 -85.53988 
L 380.166998 -88.931871 
L 378.421231 -92.545036 
L 376.675464 -96.379089 
L 374.929698 -100.431493 
L 373.183931 -104.697655 
L 371.438164 -109.171187 
L 369.692397 -113.844214 
L 367.946631 -118.70768 
L 366.200864 -123.751619 
L 364.455097 -128.965342 
L 362.709331 -134.337516 
L 360.963564 -139.856107 
L 359.217797 -145.50819 
L 357.472031 -151.279617 
L 355.726264 -157.154581 
L 353.980497 -163.115113 
L 352.23473 -169.140555 
L 350.488964 -175.207075 
L 348.743197 -181.287285 
L 346.99743 -187.350024 
L 345.251664 -193.36035 
L 343.505897 -199.279794 
L 341.76013 -205.066881 
L 340.014363 -210.677933 
L 338.268597 -216.068134 
L 336.52283 -221.192806 
L 334.777063 -226.008864 
L 333.031297 -230.476353 
L 331.28553 -234.560004 
L 329.539763 -238.230718 
L 327.793997 -241.466892 
L 326.04823 -244.255502 
L 324.302463 -246.592884 
L 322.556696 -248.485139 
L 320.81093 -249.948129 
L 319.065163 -251.007048 
L 317.319396 -251.69555 
L 315.57363 -252.054466 
L 313.827863 -252.130158 
L 312.082096 -251.972559 
L 310.33633 -251.633 
L 308.590563 -251.161924 
L 306.844796 -250.606592 
L 305.099029 -250.008923 
L 303.353263 -249.403581 
L 301.607496 -248.816429 
L 299.861729 -248.263465 
L 298.115963 -247.750298 
L 296.370196 -247.272245 
L 294.624429 -246.815033 
L 292.878663 -246.35611 
L 291.132896 -245.866469 
L 289.387129 -245.312914 
L 287.641362 -244.6606 
L 285.895596 -243.875709 
L 284.149829 -242.928076 
L 282.404062 -241.793591 
L 280.658296 -240.456209 
L 278.912529 -238.909444 
L 277.166762 -237.157215 
L 275.420995 -235.214011 
L 273.675229 -233.104339 
L 271.929462 -230.861504 
L 270.183695 -228.525807 
L 268.437929 -226.142264 
L 266.692162 -223.758029 
L 264.946395 -221.419674 
L 263.200629 -219.17051 
L 261.454862 -217.048131 
L 259.709095 -215.082329 
L 257.963328 -213.293499 
L 256.217562 -211.691636 
L 254.471795 -210.275953 
L 252.726028 -209.035139 
L 250.980262 -207.948193 
L 249.234495 -206.985779 
L 247.488728 -206.111969 
L 245.742962 -205.286265 
L 243.997195 -204.465742 
L 242.251428 -203.607171 
L 240.505661 -202.669004 
L 238.759895 -201.613084 
L 237.014128 -200.406014 
L 235.268361 -199.020117 
L 233.522595 -197.433971 
L 231.776828 -195.632529 
L 230.031061 -193.606881 
L 228.285295 -191.353706 
L 226.539528 -188.874525 
L 224.793761 -186.174843 
L 223.047994 -183.26328 
L 221.302228 -180.150776 
L 219.556461 -176.84995 
L 217.810694 -173.374646 
L 216.064928 -169.739703 
L 214.319161 -165.960913 
L 212.573394 -162.055156 
L 210.827627 -158.040635 
L 209.081861 -153.937151 
L 207.336094 -149.766332 
L 205.590327 -145.551749 
L 203.844561 -141.318859 
L 202.098794 -137.094733 
L 200.353027 -132.907555 
L 198.607261 -128.785906 
L 196.861494 -124.757866 
L 195.115727 -120.849998 
L 193.36996 -117.086288 
L 191.624194 -113.487124 
L 189.878427 -110.068391 
L 188.13266 -106.840773 
L 186.386894 -103.809303 
L 184.641127 -100.973218 
L 182.89536 -98.32612 
L 181.149594 -95.856455 
L 179.403827 -93.548256 
L 177.65806 -91.382116 
L 175.912293 -89.336325 
L 174.166527 -87.388084 
L 172.42076 -85.514726 
L 170.674993 -83.694879 
L 168.929227 -81.909478 
L 167.18346 -80.142598 
L 165.437693 -78.382054 
L 163.691927 -76.619756 
L 161.94616 -74.851805 
L 160.200393 -73.07836 
L 158.454626 -71.303282 
L 156.70886 -69.533614 
L 154.963093 -67.778927 
L 153.217326 -66.050591 
L 151.47156 -64.361017 
L 149.725793 -62.722913 
L 147.980026 -61.148594 
L 146.234259 -59.64939 
L 144.488493 -58.23515 
L 142.742726 -56.913884 
L 140.996959 -55.691526 
L 139.251193 -54.571825 
L 137.505426 -53.556353 
L 135.759659 -52.644612 
L 134.013893 -51.834223 
L 132.268126 -51.121175 
L 130.522359 -50.500117 
L 128.776592 -49.964664 
L 127.030826 -49.50771 
L 125.285059 -49.121725 
L 123.539292 -48.799023 
L 121.793526 -48.531999 
L 120.047759 -48.313324 
L 118.301992 -48.136097 
L 116.556226 -47.993953 
L 114.810459 -47.881136 
L 113.064692 -47.792532 
L 111.318925 -47.723677 
L 109.573159 -47.670733 
L 107.827392 -47.630455 
L 106.081625 -47.600138 
L 104.335859 -47.577563 
z
" style="stroke: #ff0000"/>
    </defs>
    <g clip-path="url(#p59b8efb80a)">
     <use xlink:href="#m6deac04bf5" x="0" y="432" style="fill: #ff0000; fill-opacity: 0.1; stroke: #ff0000"/>
    </g>
   </g>
   <g id="PolyCollection_2">
    <defs>
     <path id="mc1f1d2db5f" d="M 92.290909 -47.710318 
L 92.290909 -47.52 
L 94.155505 -47.52 
L 96.020102 -47.52 
L 97.884698 -47.52 
L 99.749295 -47.52 
L 101.613891 -47.52 
L 103.478488 -47.52 
L 105.343084 -47.52 
L 107.20768 -47.52 
L 109.072277 -47.52 
L 110.936873 -47.52 
L 112.80147 -47.52 
L 114.666066 -47.52 
L 116.530662 -47.52 
L 118.395259 -47.52 
L 120.259855 -47.52 
L 122.124452 -47.52 
L 123.989048 -47.52 
L 125.853644 -47.52 
L 127.718241 -47.52 
L 129.582837 -47.52 
L 131.447434 -47.52 
L 133.31203 -47.52 
L 135.176626 -47.52 
L 137.041223 -47.52 
L 138.905819 -47.52 
L 140.770416 -47.52 
L 142.635012 -47.52 
L 144.499608 -47.52 
L 146.364205 -47.52 
L 148.228801 -47.52 
L 150.093398 -47.52 
L 151.957994 -47.52 
L 153.82259 -47.52 
L 155.687187 -47.52 
L 157.551783 -47.52 
L 159.41638 -47.52 
L 161.280976 -47.52 
L 163.145572 -47.52 
L 165.010169 -47.52 
L 166.874765 -47.52 
L 168.739362 -47.52 
L 170.603958 -47.52 
L 172.468554 -47.52 
L 174.333151 -47.52 
L 176.197747 -47.52 
L 178.062344 -47.52 
L 179.92694 -47.52 
L 181.791536 -47.52 
L 183.656133 -47.52 
L 185.520729 -47.52 
L 187.385326 -47.52 
L 189.249922 -47.52 
L 191.114518 -47.52 
L 192.979115 -47.52 
L 194.843711 -47.52 
L 196.708308 -47.52 
L 198.572904 -47.52 
L 200.4375 -47.52 
L 202.302097 -47.52 
L 204.166693 -47.52 
L 206.03129 -47.52 
L 207.895886 -47.52 
L 209.760482 -47.52 
L 211.625079 -47.52 
L 213.489675 -47.52 
L 215.354272 -47.52 
L 217.218868 -47.52 
L 219.083464 -47.52 
L 220.948061 -47.52 
L 222.812657 -47.52 
L 224.677254 -47.52 
L 226.54185 -47.52 
L 228.406446 -47.52 
L 230.271043 -47.52 
L 232.135639 -47.52 
L 234.000236 -47.52 
L 235.864832 -47.52 
L 237.729428 -47.52 
L 239.594025 -47.52 
L 241.458621 -47.52 
L 243.323218 -47.52 
L 245.187814 -47.52 
L 247.05241 -47.52 
L 248.917007 -47.52 
L 250.781603 -47.52 
L 252.6462 -47.52 
L 254.510796 -47.52 
L 256.375392 -47.52 
L 258.239989 -47.52 
L 260.104585 -47.52 
L 261.969182 -47.52 
L 263.833778 -47.52 
L 265.698374 -47.52 
L 267.562971 -47.52 
L 269.427567 -47.52 
L 271.292164 -47.52 
L 273.15676 -47.52 
L 275.021356 -47.52 
L 276.885953 -47.52 
L 278.750549 -47.52 
L 280.615146 -47.52 
L 282.479742 -47.52 
L 284.344338 -47.52 
L 286.208935 -47.52 
L 288.073531 -47.52 
L 289.938128 -47.52 
L 291.802724 -47.52 
L 293.66732 -47.52 
L 295.531917 -47.52 
L 297.396513 -47.52 
L 299.26111 -47.52 
L 301.125706 -47.52 
L 302.990302 -47.52 
L 304.854899 -47.52 
L 306.719495 -47.52 
L 308.584092 -47.52 
L 310.448688 -47.52 
L 312.313284 -47.52 
L 314.177881 -47.52 
L 316.042477 -47.52 
L 317.907074 -47.52 
L 319.77167 -47.52 
L 321.636267 -47.52 
L 323.500863 -47.52 
L 325.365459 -47.52 
L 327.230056 -47.52 
L 329.094652 -47.52 
L 330.959249 -47.52 
L 332.823845 -47.52 
L 334.688441 -47.52 
L 336.553038 -47.52 
L 338.417634 -47.52 
L 340.282231 -47.52 
L 342.146827 -47.52 
L 344.011423 -47.52 
L 345.87602 -47.52 
L 347.740616 -47.52 
L 349.605213 -47.52 
L 351.469809 -47.52 
L 353.334405 -47.52 
L 355.199002 -47.52 
L 357.063598 -47.52 
L 358.928195 -47.52 
L 360.792791 -47.52 
L 362.657387 -47.52 
L 364.521984 -47.52 
L 366.38658 -47.52 
L 368.251177 -47.52 
L 370.115773 -47.52 
L 371.980369 -47.52 
L 373.844966 -47.52 
L 375.709562 -47.52 
L 377.574159 -47.52 
L 379.438755 -47.52 
L 381.303351 -47.52 
L 383.167948 -47.52 
L 385.032544 -47.52 
L 386.897141 -47.52 
L 388.761737 -47.52 
L 390.626333 -47.52 
L 392.49093 -47.52 
L 394.355526 -47.52 
L 396.220123 -47.52 
L 398.084719 -47.52 
L 399.949315 -47.52 
L 401.813912 -47.52 
L 403.678508 -47.52 
L 405.543105 -47.52 
L 407.407701 -47.52 
L 409.272297 -47.52 
L 411.136894 -47.52 
L 413.00149 -47.52 
L 414.866087 -47.52 
L 416.730683 -47.52 
L 418.595279 -47.52 
L 420.459876 -47.52 
L 422.324472 -47.52 
L 424.189069 -47.52 
L 426.053665 -47.52 
L 427.918261 -47.52 
L 429.782858 -47.52 
L 431.647454 -47.52 
L 433.512051 -47.52 
L 435.376647 -47.52 
L 437.241243 -47.52 
L 439.10584 -47.52 
L 440.970436 -47.52 
L 442.835033 -47.52 
L 444.699629 -47.52 
L 446.564225 -47.52 
L 448.428822 -47.52 
L 450.293418 -47.52 
L 452.158015 -47.52 
L 454.022611 -47.52 
L 455.887207 -47.52 
L 457.751804 -47.52 
L 459.6164 -47.52 
L 461.480997 -47.52 
L 463.345593 -47.52 
L 463.345593 -47.586469 
L 463.345593 -47.586469 
L 461.480997 -47.608055 
L 459.6164 -47.635837 
L 457.751804 -47.671331 
L 455.887207 -47.716339 
L 454.022611 -47.772988 
L 452.158015 -47.843762 
L 450.293418 -47.931534 
L 448.428822 -48.039586 
L 446.564225 -48.171631 
L 444.699629 -48.331821 
L 442.835033 -48.524743 
L 440.970436 -48.755408 
L 439.10584 -49.029215 
L 437.241243 -49.351907 
L 435.376647 -49.729507 
L 433.512051 -50.168234 
L 431.647454 -50.674409 
L 429.782858 -51.254337 
L 427.918261 -51.914188 
L 426.053665 -52.659858 
L 424.189069 -53.496841 
L 422.324472 -54.43009 
L 420.459876 -55.463895 
L 418.595279 -56.601775 
L 416.730683 -57.846387 
L 414.866087 -59.199471 
L 413.00149 -60.661822 
L 411.136894 -62.233294 
L 409.272297 -63.912855 
L 407.407701 -65.698665 
L 405.543105 -67.588204 
L 403.678508 -69.578415 
L 401.813912 -71.66589 
L 399.949315 -73.847057 
L 398.084719 -76.118375 
L 396.220123 -78.476534 
L 394.355526 -80.918623 
L 392.49093 -83.442285 
L 390.626333 -86.045817 
L 388.761737 -88.728244 
L 386.897141 -91.489323 
L 385.032544 -94.329507 
L 383.167948 -97.249841 
L 381.303351 -100.251816 
L 379.438755 -103.337178 
L 377.574159 -106.507692 
L 375.709562 -109.764897 
L 373.844966 -113.109833 
L 371.980369 -116.542784 
L 370.115773 -120.063036 
L 368.251177 -123.668656 
L 366.38658 -127.356332 
L 364.521984 -131.121251 
L 362.657387 -134.957044 
L 360.792791 -138.855797 
L 358.928195 -142.808131 
L 357.063598 -146.803341 
L 355.199002 -150.8296 
L 353.334405 -154.874212 
L 351.469809 -158.92391 
L 349.605213 -162.965172 
L 347.740616 -166.984556 
L 345.87602 -170.969031 
L 344.011423 -174.90628 
L 342.146827 -178.784976 
L 340.282231 -182.594996 
L 338.417634 -186.327579 
L 336.553038 -189.975409 
L 334.688441 -193.53261 
L 332.823845 -196.994679 
L 330.959249 -200.358324 
L 329.094652 -203.62125 
L 327.230056 -206.781883 
L 325.365459 -209.839068 
L 323.500863 -212.79175 
L 321.636267 -215.638668 
L 319.77167 -218.37809 
L 317.907074 -221.007602 
L 316.042477 -223.523979 
L 314.177881 -225.923158 
L 312.313284 -228.200298 
L 310.448688 -230.349953 
L 308.584092 -232.366333 
L 306.719495 -234.243637 
L 304.854899 -235.976438 
L 302.990302 -237.560082 
L 301.125706 -238.991071 
L 299.26111 -240.267386 
L 297.396513 -241.388731 
L 295.531917 -242.356644 
L 293.66732 -243.174481 
L 291.802724 -243.847246 
L 289.938128 -244.381259 
L 288.073531 -244.783708 
L 286.208935 -245.062062 
L 284.344338 -245.223426 
L 282.479742 -245.273849 
L 280.615146 -245.217647 
L 278.750549 -245.056789 
L 276.885953 -244.790389 
L 275.021356 -244.414353 
L 273.15676 -243.921211 
L 271.292164 -243.300149 
L 269.427567 -242.537262 
L 267.562971 -241.616014 
L 265.698374 -240.517888 
L 263.833778 -239.2232 
L 261.969182 -237.712029 
L 260.104585 -235.96522 
L 258.239989 -233.965407 
L 256.375392 -231.698002 
L 254.510796 -229.152096 
L 252.6462 -226.321236 
L 250.781603 -223.204028 
L 248.917007 -219.804551 
L 247.05241 -216.132558 
L 245.187814 -212.203453 
L 243.323218 -208.038071 
L 241.458621 -203.662249 
L 239.594025 -199.106232 
L 237.729428 -194.403938 
L 235.864832 -189.592111 
L 234.000236 -184.709419 
L 232.135639 -179.795501 
L 230.271043 -174.890039 
L 228.406446 -170.03185 
L 226.54185 -165.258058 
L 224.677254 -160.603345 
L 222.812657 -156.099309 
L 220.948061 -151.773947 
L 219.083464 -147.651255 
L 217.218868 -143.750953 
L 215.354272 -140.088333 
L 213.489675 -136.67422 
L 211.625079 -133.515035 
L 209.760482 -130.612941 
L 207.895886 -127.966071 
L 206.03129 -125.568811 
L 204.166693 -123.412121 
L 202.302097 -121.48389 
L 200.4375 -119.7693 
L 198.572904 -118.251202 
L 196.708308 -116.910473 
L 194.843711 -115.726374 
L 192.979115 -114.676889 
L 191.114518 -113.739045 
L 189.249922 -112.889228 
L 187.385326 -112.10348 
L 185.520729 -111.357804 
L 183.656133 -110.628459 
L 181.791536 -109.892267 
L 179.92694 -109.126936 
L 178.062344 -108.311381 
L 176.197747 -107.42607 
L 174.333151 -106.453366 
L 172.468554 -105.377868 
L 170.603958 -104.186742 
L 168.739362 -102.870024 
L 166.874765 -101.42088 
L 165.010169 -99.83581 
L 163.145572 -98.114782 
L 161.280976 -96.261275 
L 159.41638 -94.282231 
L 157.551783 -92.187908 
L 155.687187 -89.991625 
L 153.82259 -87.709415 
L 151.957994 -85.359584 
L 150.093398 -82.962198 
L 148.228801 -80.538523 
L 146.364205 -78.110418 
L 144.499608 -75.69973 
L 142.635012 -73.327701 
L 140.770416 -71.014415 
L 138.905819 -68.778301 
L 137.041223 -66.635722 
L 135.176626 -64.600644 
L 133.31203 -62.684418 
L 131.447434 -60.895647 
L 129.582837 -59.240173 
L 127.718241 -57.721138 
L 125.853644 -56.339144 
L 123.989048 -55.092468 
L 122.124452 -53.977346 
L 120.259855 -52.988276 
L 118.395259 -52.118356 
L 116.530662 -51.359622 
L 114.666066 -50.703372 
L 112.80147 -50.140476 
L 110.936873 -49.661653 
L 109.072277 -49.257711 
L 107.20768 -48.919748 
L 105.343084 -48.639314 
L 103.478488 -48.408527 
L 101.613891 -48.220153 
L 99.749295 -48.067655 
L 97.884698 -47.94521 
L 96.020102 -47.847695 
L 94.155505 -47.770668 
L 92.290909 -47.710318 
z
" style="stroke: #008000"/>
    </defs>
    <g clip-path="url(#p59b8efb80a)">
     <use xlink:href="#mc1f1d2db5f" x="0" y="432" style="fill: #008000; fill-opacity: 0.1; stroke: #008000"/>
    </g>
   </g>
   <g id="PolyCollection_3">
    <defs>
     <path id="m44777de523" d="M 161.115436 -47.520667 
L 161.115436 -47.52 
L 162.376219 -47.52 
L 163.637002 -47.52 
L 164.897785 -47.52 
L 166.158568 -47.52 
L 167.41935 -47.52 
L 168.680133 -47.52 
L 169.940916 -47.52 
L 171.201699 -47.52 
L 172.462482 -47.52 
L 173.723265 -47.52 
L 174.984048 -47.52 
L 176.244831 -47.52 
L 177.505613 -47.52 
L 178.766396 -47.52 
L 180.027179 -47.52 
L 181.287962 -47.52 
L 182.548745 -47.52 
L 183.809528 -47.52 
L 185.070311 -47.52 
L 186.331094 -47.52 
L 187.591877 -47.52 
L 188.852659 -47.52 
L 190.113442 -47.52 
L 191.374225 -47.52 
L 192.635008 -47.52 
L 193.895791 -47.52 
L 195.156574 -47.52 
L 196.417357 -47.52 
L 197.67814 -47.52 
L 198.938922 -47.52 
L 200.199705 -47.52 
L 201.460488 -47.52 
L 202.721271 -47.52 
L 203.982054 -47.52 
L 205.242837 -47.52 
L 206.50362 -47.52 
L 207.764403 -47.52 
L 209.025186 -47.52 
L 210.285968 -47.52 
L 211.546751 -47.52 
L 212.807534 -47.52 
L 214.068317 -47.52 
L 215.3291 -47.52 
L 216.589883 -47.52 
L 217.850666 -47.52 
L 219.111449 -47.52 
L 220.372231 -47.52 
L 221.633014 -47.52 
L 222.893797 -47.52 
L 224.15458 -47.52 
L 225.415363 -47.52 
L 226.676146 -47.52 
L 227.936929 -47.52 
L 229.197712 -47.52 
L 230.458495 -47.52 
L 231.719277 -47.52 
L 232.98006 -47.52 
L 234.240843 -47.52 
L 235.501626 -47.52 
L 236.762409 -47.52 
L 238.023192 -47.52 
L 239.283975 -47.52 
L 240.544758 -47.52 
L 241.80554 -47.52 
L 243.066323 -47.52 
L 244.327106 -47.52 
L 245.587889 -47.52 
L 246.848672 -47.52 
L 248.109455 -47.52 
L 249.370238 -47.52 
L 250.631021 -47.52 
L 251.891804 -47.52 
L 253.152586 -47.52 
L 254.413369 -47.52 
L 255.674152 -47.52 
L 256.934935 -47.52 
L 258.195718 -47.52 
L 259.456501 -47.52 
L 260.717284 -47.52 
L 261.978067 -47.52 
L 263.238849 -47.52 
L 264.499632 -47.52 
L 265.760415 -47.52 
L 267.021198 -47.52 
L 268.281981 -47.52 
L 269.542764 -47.52 
L 270.803547 -47.52 
L 272.06433 -47.52 
L 273.325112 -47.52 
L 274.585895 -47.52 
L 275.846678 -47.52 
L 277.107461 -47.52 
L 278.368244 -47.52 
L 279.629027 -47.52 
L 280.88981 -47.52 
L 282.150593 -47.52 
L 283.411376 -47.52 
L 284.672158 -47.52 
L 285.932941 -47.52 
L 287.193724 -47.52 
L 288.454507 -47.52 
L 289.71529 -47.52 
L 290.976073 -47.52 
L 292.236856 -47.52 
L 293.497639 -47.52 
L 294.758421 -47.52 
L 296.019204 -47.52 
L 297.279987 -47.52 
L 298.54077 -47.52 
L 299.801553 -47.52 
L 301.062336 -47.52 
L 302.323119 -47.52 
L 303.583902 -47.52 
L 304.844685 -47.52 
L 306.105467 -47.52 
L 307.36625 -47.52 
L 308.627033 -47.52 
L 309.887816 -47.52 
L 311.148599 -47.52 
L 312.409382 -47.52 
L 313.670165 -47.52 
L 314.930948 -47.52 
L 316.19173 -47.52 
L 317.452513 -47.52 
L 318.713296 -47.52 
L 319.974079 -47.52 
L 321.234862 -47.52 
L 322.495645 -47.52 
L 323.756428 -47.52 
L 325.017211 -47.52 
L 326.277994 -47.52 
L 327.538776 -47.52 
L 328.799559 -47.52 
L 330.060342 -47.52 
L 331.321125 -47.52 
L 332.581908 -47.52 
L 333.842691 -47.52 
L 335.103474 -47.52 
L 336.364257 -47.52 
L 337.625039 -47.52 
L 338.885822 -47.52 
L 340.146605 -47.52 
L 341.407388 -47.52 
L 342.668171 -47.52 
L 343.928954 -47.52 
L 345.189737 -47.52 
L 346.45052 -47.52 
L 347.711303 -47.52 
L 348.972085 -47.52 
L 350.232868 -47.52 
L 351.493651 -47.52 
L 352.754434 -47.52 
L 354.015217 -47.52 
L 355.276 -47.52 
L 356.536783 -47.52 
L 357.797566 -47.52 
L 359.058348 -47.52 
L 360.319131 -47.52 
L 361.579914 -47.52 
L 362.840697 -47.52 
L 364.10148 -47.52 
L 365.362263 -47.52 
L 366.623046 -47.52 
L 367.883829 -47.52 
L 369.144611 -47.52 
L 370.405394 -47.52 
L 371.666177 -47.52 
L 372.92696 -47.52 
L 374.187743 -47.52 
L 375.448526 -47.52 
L 376.709309 -47.52 
L 377.970092 -47.52 
L 379.230875 -47.52 
L 380.491657 -47.52 
L 381.75244 -47.52 
L 383.013223 -47.52 
L 384.274006 -47.52 
L 385.534789 -47.52 
L 386.795572 -47.52 
L 388.056355 -47.52 
L 389.317138 -47.52 
L 390.57792 -47.52 
L 391.838703 -47.52 
L 393.099486 -47.52 
L 394.360269 -47.52 
L 395.621052 -47.52 
L 396.881835 -47.52 
L 398.142618 -47.52 
L 399.403401 -47.52 
L 400.664184 -47.52 
L 401.924966 -47.52 
L 403.185749 -47.52 
L 404.446532 -47.52 
L 405.707315 -47.52 
L 406.968098 -47.52 
L 408.228881 -47.52 
L 409.489664 -47.52 
L 410.750447 -47.52 
L 412.011229 -47.52 
L 412.011229 -47.524912 
L 412.011229 -47.524912 
L 410.750447 -47.530226 
L 409.489664 -47.540324 
L 408.228881 -47.558656 
L 406.968098 -47.590546 
L 405.707315 -47.643876 
L 404.446532 -47.72989 
L 403.185749 -47.864106 
L 401.924966 -48.067267 
L 400.664184 -48.366226 
L 399.403401 -48.794565 
L 398.142618 -49.392646 
L 396.881835 -50.206745 
L 395.621052 -51.286831 
L 394.360269 -52.682645 
L 393.099486 -54.437989 
L 391.838703 -56.583697 
L 390.57792 -59.130505 
L 389.317138 -62.063661 
L 388.056355 -65.34108 
L 386.795572 -68.896055 
L 385.534789 -72.644112 
L 384.274006 -76.492485 
L 383.013223 -80.35029 
L 381.75244 -84.137986 
L 380.491657 -87.795419 
L 379.230875 -91.288031 
L 377.970092 -94.610711 
L 376.709309 -97.788609 
L 375.448526 -100.874577 
L 374.187743 -103.943534 
L 372.92696 -107.084547 
L 371.666177 -110.391498 
L 370.405394 -113.953022 
L 369.144611 -117.842314 
L 367.883829 -122.107697 
L 366.623046 -126.765301 
L 365.362263 -131.795348 
L 364.10148 -137.143192 
L 362.840697 -142.725298 
L 361.579914 -148.439311 
L 360.319131 -154.176786 
L 359.058348 -159.837161 
L 357.797566 -165.341718 
L 356.536783 -170.645824 
L 355.276 -175.746914 
L 354.015217 -180.685224 
L 352.754434 -185.535555 
L 351.493651 -190.391077 
L 350.232868 -195.343274 
L 348.972085 -200.463756 
L 347.711303 -205.792986 
L 346.45052 -211.338312 
L 345.189737 -217.080172 
L 343.928954 -222.982439 
L 342.668171 -229.001875 
L 341.407388 -235.092893 
L 340.146605 -241.206669 
L 338.885822 -247.28646 
L 337.625039 -253.26264 
L 336.364257 -259.050907 
L 335.103474 -264.55582 
L 333.842691 -269.679627 
L 332.581908 -274.334057 
L 331.321125 -278.451309 
L 330.060342 -281.990883 
L 328.799559 -284.940894 
L 327.538776 -287.314929 
L 326.277994 -289.146701 
L 325.017211 -290.484559 
L 323.756428 -291.387054 
L 322.495645 -291.91989 
L 321.234862 -292.153957 
L 319.974079 -292.163404 
L 318.713296 -292.0225 
L 317.452513 -291.80061 
L 316.19173 -291.555825 
L 314.930948 -291.328782 
L 313.670165 -291.138375 
L 312.409382 -290.980461 
L 311.148599 -290.829894 
L 309.887816 -290.645373 
L 308.627033 -290.37601 
L 307.36625 -289.968348 
L 306.105467 -289.372921 
L 304.844685 -288.550018 
L 303.583902 -287.474505 
L 302.323119 -286.139225 
L 301.062336 -284.556411 
L 299.801553 -282.756901 
L 298.54077 -280.78753 
L 297.279987 -278.707233 
L 296.019204 -276.582038 
L 294.758421 -274.478994 
L 293.497639 -272.459498 
L 292.236856 -270.573072 
L 290.976073 -268.852831 
L 289.71529 -267.31344 
L 288.454507 -265.95172 
L 287.193724 -264.749393 
L 285.932941 -263.67699 
L 284.672158 -262.697793 
L 283.411376 -261.770956 
L 282.150593 -260.853741 
L 280.88981 -259.903391 
L 279.629027 -258.879277 
L 278.368244 -257.745661 
L 277.107461 -256.475014 
L 275.846678 -255.05145 
L 274.585895 -253.47327 
L 273.325112 -251.753215 
L 272.06433 -249.915336 
L 270.803547 -247.988677 
L 269.542764 -245.999568 
L 268.281981 -243.965241 
L 267.021198 -241.891061 
L 265.760415 -239.772398 
L 264.499632 -237.600466 
L 263.238849 -235.369953 
L 261.978067 -233.085502 
L 260.717284 -230.764492 
L 259.456501 -228.435289 
L 258.195718 -226.132098 
L 256.934935 -223.888896 
L 255.674152 -221.734836 
L 254.413369 -219.692413 
L 253.152586 -217.778318 
L 251.891804 -216.005671 
L 250.631021 -214.385669 
L 249.370238 -212.926927 
L 248.109455 -211.63201 
L 246.848672 -210.492411 
L 245.587889 -209.484561 
L 244.327106 -208.569602 
L 243.066323 -207.698461 
L 241.80554 -206.821608 
L 240.544758 -205.900542 
L 239.283975 -204.916491 
L 238.023192 -203.872119 
L 236.762409 -202.784481 
L 235.501626 -201.671159 
L 234.240843 -200.534583 
L 232.98006 -199.350501 
L 231.719277 -198.064923 
L 230.458495 -196.600656 
L 229.197712 -194.870927 
L 227.936929 -192.795192 
L 226.676146 -190.31198 
L 225.415363 -187.385477 
L 224.15458 -184.005552 
L 222.893797 -180.183308 
L 221.633014 -175.944991 
L 220.372231 -171.32646 
L 219.111449 -166.369348 
L 217.850666 -161.119089 
L 216.589883 -155.624343 
L 215.3291 -149.936921 
L 214.068317 -144.111273 
L 212.807534 -138.203126 
L 211.546751 -132.267483 
L 210.285968 -126.356574 
L 209.025186 -120.518162 
L 207.764403 -114.794329 
L 206.50362 -109.220692 
L 205.242837 -103.826084 
L 203.982054 -98.632735 
L 202.721271 -93.656881 
L 201.460488 -88.909662 
L 200.199705 -84.398241 
L 198.938922 -80.127196 
L 197.67814 -76.100165 
L 196.417357 -72.321615 
L 195.156574 -68.79838 
L 193.895791 -65.540536 
L 192.635008 -62.561189 
L 191.374225 -59.874864 
L 190.113442 -57.494546 
L 188.852659 -55.427967 
L 187.591877 -53.674175 
L 186.331094 -52.221554 
L 185.070311 -51.047942 
L 183.809528 -50.122756 
L 182.548745 -49.410372 
L 181.287962 -48.873751 
L 180.027179 -48.477505 
L 178.766396 -48.189994 
L 177.505613 -47.984431 
L 176.244831 -47.839166 
L 174.984048 -47.737398 
L 173.723265 -47.666557 
L 172.462482 -47.617513 
L 171.201699 -47.583786 
L 169.940916 -47.560829 
L 168.680133 -47.545446 
L 167.41935 -47.535364 
L 166.158568 -47.528947 
L 164.897785 -47.525005 
L 163.637002 -47.52268 
L 162.376219 -47.52137 
L 161.115436 -47.520667 
z
" style="stroke: #0000ff"/>
    </defs>
    <g clip-path="url(#p59b8efb80a)">
     <use xlink:href="#m44777de523" x="0" y="432" style="fill: #0000ff; fill-opacity: 0.1; stroke: #0000ff"/>
    </g>
   </g>
   <g id="PolyCollection_4">
    <defs>
     <path id="mf9f171cfa0" d="M 184.465514 -47.536512 
L 184.465514 -47.52 
L 186.041612 -47.52 
L 187.617711 -47.52 
L 189.193809 -47.52 
L 190.769907 -47.52 
L 192.346006 -47.52 
L 193.922104 -47.52 
L 195.498202 -47.52 
L 197.074301 -47.52 
L 198.650399 -47.52 
L 200.226498 -47.52 
L 201.802596 -47.52 
L 203.378694 -47.52 
L 204.954793 -47.52 
L 206.530891 -47.52 
L 208.106989 -47.52 
L 209.683088 -47.52 
L 211.259186 -47.52 
L 212.835285 -47.52 
L 214.411383 -47.52 
L 215.987481 -47.52 
L 217.56358 -47.52 
L 219.139678 -47.52 
L 220.715776 -47.52 
L 222.291875 -47.52 
L 223.867973 -47.52 
L 225.444072 -47.52 
L 227.02017 -47.52 
L 228.596268 -47.52 
L 230.172367 -47.52 
L 231.748465 -47.52 
L 233.324563 -47.52 
L 234.900662 -47.52 
L 236.47676 -47.52 
L 238.052859 -47.52 
L 239.628957 -47.52 
L 241.205055 -47.52 
L 242.781154 -47.52 
L 244.357252 -47.52 
L 245.93335 -47.52 
L 247.509449 -47.52 
L 249.085547 -47.52 
L 250.661646 -47.52 
L 252.237744 -47.52 
L 253.813842 -47.52 
L 255.389941 -47.52 
L 256.966039 -47.52 
L 258.542138 -47.52 
L 260.118236 -47.52 
L 261.694334 -47.52 
L 263.270433 -47.52 
L 264.846531 -47.52 
L 266.422629 -47.52 
L 267.998728 -47.52 
L 269.574826 -47.52 
L 271.150925 -47.52 
L 272.727023 -47.52 
L 274.303121 -47.52 
L 275.87922 -47.52 
L 277.455318 -47.52 
L 279.031416 -47.52 
L 280.607515 -47.52 
L 282.183613 -47.52 
L 283.759712 -47.52 
L 285.33581 -47.52 
L 286.911908 -47.52 
L 288.488007 -47.52 
L 290.064105 -47.52 
L 291.640203 -47.52 
L 293.216302 -47.52 
L 294.7924 -47.52 
L 296.368499 -47.52 
L 297.944597 -47.52 
L 299.520695 -47.52 
L 301.096794 -47.52 
L 302.672892 -47.52 
L 304.24899 -47.52 
L 305.825089 -47.52 
L 307.401187 -47.52 
L 308.977286 -47.52 
L 310.553384 -47.52 
L 312.129482 -47.52 
L 313.705581 -47.52 
L 315.281679 -47.52 
L 316.857777 -47.52 
L 318.433876 -47.52 
L 320.009974 -47.52 
L 321.586073 -47.52 
L 323.162171 -47.52 
L 324.738269 -47.52 
L 326.314368 -47.52 
L 327.890466 -47.52 
L 329.466565 -47.52 
L 331.042663 -47.52 
L 332.618761 -47.52 
L 334.19486 -47.52 
L 335.770958 -47.52 
L 337.347056 -47.52 
L 338.923155 -47.52 
L 340.499253 -47.52 
L 342.075352 -47.52 
L 343.65145 -47.52 
L 345.227548 -47.52 
L 346.803647 -47.52 
L 348.379745 -47.52 
L 349.955843 -47.52 
L 351.531942 -47.52 
L 353.10804 -47.52 
L 354.684139 -47.52 
L 356.260237 -47.52 
L 357.836335 -47.52 
L 359.412434 -47.52 
L 360.988532 -47.52 
L 362.56463 -47.52 
L 364.140729 -47.52 
L 365.716827 -47.52 
L 367.292926 -47.52 
L 368.869024 -47.52 
L 370.445122 -47.52 
L 372.021221 -47.52 
L 373.597319 -47.52 
L 375.173417 -47.52 
L 376.749516 -47.52 
L 378.325614 -47.52 
L 379.901713 -47.52 
L 381.477811 -47.52 
L 383.053909 -47.52 
L 384.630008 -47.52 
L 386.206106 -47.52 
L 387.782204 -47.52 
L 389.358303 -47.52 
L 390.934401 -47.52 
L 392.5105 -47.52 
L 394.086598 -47.52 
L 395.662696 -47.52 
L 397.238795 -47.52 
L 398.814893 -47.52 
L 400.390991 -47.52 
L 401.96709 -47.52 
L 403.543188 -47.52 
L 405.119287 -47.52 
L 406.695385 -47.52 
L 408.271483 -47.52 
L 409.847582 -47.52 
L 411.42368 -47.52 
L 412.999779 -47.52 
L 414.575877 -47.52 
L 416.151975 -47.52 
L 417.728074 -47.52 
L 419.304172 -47.52 
L 420.88027 -47.52 
L 422.456369 -47.52 
L 424.032467 -47.52 
L 425.608566 -47.52 
L 427.184664 -47.52 
L 428.760762 -47.52 
L 430.336861 -47.52 
L 431.912959 -47.52 
L 433.489057 -47.52 
L 435.065156 -47.52 
L 436.641254 -47.52 
L 438.217353 -47.52 
L 439.793451 -47.52 
L 441.369549 -47.52 
L 442.945648 -47.52 
L 444.521746 -47.52 
L 446.097844 -47.52 
L 447.673943 -47.52 
L 449.250041 -47.52 
L 450.82614 -47.52 
L 452.402238 -47.52 
L 453.978336 -47.52 
L 455.554435 -47.52 
L 457.130533 -47.52 
L 458.706631 -47.52 
L 460.28273 -47.52 
L 461.858828 -47.52 
L 463.434927 -47.52 
L 465.011025 -47.52 
L 466.587123 -47.52 
L 468.163222 -47.52 
L 469.73932 -47.52 
L 471.315418 -47.52 
L 472.891517 -47.52 
L 474.467615 -47.52 
L 476.043714 -47.52 
L 477.619812 -47.52 
L 479.19591 -47.52 
L 480.772009 -47.52 
L 482.348107 -47.52 
L 483.924206 -47.52 
L 485.500304 -47.52 
L 487.076402 -47.52 
L 488.652501 -47.52 
L 490.228599 -47.52 
L 491.804697 -47.52 
L 493.380796 -47.52 
L 494.956894 -47.52 
L 496.532993 -47.52 
L 498.109091 -47.52 
L 498.109091 -47.5364 
L 498.109091 -47.5364 
L 496.532993 -47.546241 
L 494.956894 -47.560913 
L 493.380796 -47.582158 
L 491.804697 -47.612019 
L 490.228599 -47.652744 
L 488.652501 -47.706602 
L 487.076402 -47.775619 
L 485.500304 -47.861242 
L 483.924206 -47.963968 
L 482.348107 -48.08299 
L 480.772009 -48.215944 
L 479.19591 -48.358826 
L 477.619812 -48.50616 
L 476.043714 -48.651458 
L 474.467615 -48.787975 
L 472.891517 -48.909708 
L 471.315418 -49.01253 
L 469.73932 -49.095304 
L 468.163222 -49.160823 
L 466.587123 -49.216377 
L 465.011025 -49.273844 
L 463.434927 -49.34919 
L 461.858828 -49.461397 
L 460.28273 -49.630877 
L 458.706631 -49.87753 
L 457.130533 -50.21866 
L 455.554435 -50.66704 
L 453.978336 -51.229413 
L 452.402238 -51.905735 
L 450.82614 -52.689409 
L 449.250041 -53.568649 
L 447.673943 -54.528969 
L 446.097844 -55.556636 
L 444.521746 -56.642685 
L 442.945648 -57.786987 
L 441.369549 -59.001722 
L 439.793451 -60.313597 
L 438.217353 -61.764278 
L 436.641254 -63.408657 
L 435.065156 -65.310901 
L 433.489057 -67.538489 
L 431.912959 -70.154813 
L 430.336861 -73.211086 
L 428.760762 -76.738542 
L 427.184664 -80.741873 
L 425.608566 -85.194843 
L 424.032467 -90.038774 
L 422.456369 -95.184375 
L 420.88027 -100.516982 
L 419.304172 -105.904919 
L 417.728074 -111.210288 
L 416.151975 -116.30115 
L 414.575877 -121.063798 
L 412.999779 -125.413738 
L 411.42368 -129.304047 
L 409.847582 -132.730075 
L 408.271483 -135.729869 
L 406.695385 -138.380292 
L 405.119287 -140.789379 
L 403.543188 -143.085998 
L 401.96709 -145.408264 
L 400.390991 -147.892259 
L 398.814893 -150.662489 
L 397.238795 -153.82511 
L 395.662696 -157.464422 
L 394.086598 -161.642456 
L 392.5105 -166.400925 
L 390.934401 -171.764397 
L 389.358303 -177.743382 
L 387.782204 -184.336198 
L 386.206106 -191.52886 
L 384.630008 -199.292849 
L 383.053909 -207.581231 
L 381.477811 -216.324151 
L 379.901713 -225.42504 
L 378.325614 -234.758971 
L 376.749516 -244.174333 
L 375.173417 -253.498559 
L 373.597319 -262.547999 
L 372.021221 -271.141327 
L 370.445122 -279.115177 
L 368.869024 -286.340169 
L 367.292926 -292.735126 
L 365.716827 -298.277253 
L 364.140729 -303.006382 
L 362.56463 -307.02207 
L 360.988532 -310.473377 
L 359.412434 -313.542279 
L 357.836335 -316.422821 
L 356.260237 -319.298896 
L 354.684139 -322.323829 
L 353.10804 -325.604637 
L 351.531942 -329.19291 
L 349.955843 -333.083043 
L 348.379745 -337.217162 
L 346.803647 -341.495034 
L 345.227548 -345.78666 
L 343.65145 -349.945278 
L 342.075352 -353.819075 
L 340.499253 -357.260806 
L 338.923155 -360.135405 
L 337.347056 -362.326345 
L 335.770958 -363.741628 
L 334.19486 -364.32 
L 332.618761 -364.037247 
L 331.042663 -362.91165 
L 329.466565 -361.007012 
L 327.890466 -358.431456 
L 326.314368 -355.330534 
L 324.738269 -351.87401 
L 323.162171 -348.236914 
L 321.586073 -344.576717 
L 320.009974 -341.009567 
L 318.433876 -337.589138 
L 316.857777 -334.291616 
L 315.281679 -331.009752 
L 313.705581 -327.557714 
L 312.129482 -323.686981 
L 310.553384 -319.111913 
L 308.977286 -313.542176 
L 307.401187 -306.718092 
L 305.825089 -298.444425 
L 304.24899 -288.61814 
L 302.672892 -277.2464 
L 301.096794 -264.452249 
L 299.520695 -250.467176 
L 297.944597 -235.611492 
L 296.368499 -220.265263 
L 294.7924 -204.833748 
L 293.216302 -189.712036 
L 291.640203 -175.253392 
L 290.064105 -161.745038 
L 288.488007 -149.39364 
L 286.911908 -138.321153 
L 285.33581 -128.570002 
L 283.759712 -120.115405 
L 282.183613 -112.881887 
L 280.607515 -106.760982 
L 279.031416 -101.627563 
L 277.455318 -97.353025 
L 275.87922 -93.814476 
L 274.303121 -90.899934 
L 272.727023 -88.51017 
L 271.150925 -86.558121 
L 269.574826 -84.966924 
L 267.998728 -83.667436 
L 266.422629 -82.595895 
L 264.846531 -81.69212 
L 263.270433 -80.89845 
L 261.694334 -80.159488 
L 260.118236 -79.422624 
L 258.542138 -78.639266 
L 256.966039 -77.766628 
L 255.389941 -76.769845 
L 253.813842 -75.624121 
L 252.237744 -74.316543 
L 250.661646 -72.847196 
L 249.085547 -71.22929 
L 247.509449 -69.488145 
L 245.93335 -67.659046 
L 244.357252 -65.784189 
L 242.781154 -63.909061 
L 241.205055 -62.078694 
L 239.628957 -60.334218 
L 238.052859 -58.710084 
L 236.47676 -57.232186 
L 234.900662 -55.916978 
L 233.324563 -54.771529 
L 231.748465 -53.794365 
L 230.172367 -52.976874 
L 228.596268 -52.304997 
L 227.02017 -51.76101 
L 225.444072 -51.325165 
L 223.867973 -50.977117 
L 222.291875 -50.697049 
L 220.715776 -50.466533 
L 219.139678 -50.269156 
L 217.56358 -50.090966 
L 215.987481 -49.920788 
L 214.411383 -49.750415 
L 212.835285 -49.574668 
L 211.259186 -49.391293 
L 209.683088 -49.200678 
L 208.106989 -49.00538 
L 206.530891 -48.809501 
L 204.954793 -48.617972 
L 203.378694 -48.435829 
L 201.802596 -48.267575 
L 200.226498 -48.116701 
L 198.650399 -47.985404 
L 197.074301 -47.874518 
L 195.498202 -47.783628 
L 193.922104 -47.711309 
L 192.346006 -47.655438 
L 190.769907 -47.613522 
L 189.193809 -47.582974 
L 187.617711 -47.561346 
L 186.041612 -47.546464 
L 184.465514 -47.536512 
z
" style="stroke: #ffa500"/>
    </defs>
    <g clip-path="url(#p59b8efb80a)">
     <use xlink:href="#mf9f171cfa0" x="0" y="432" style="fill: #ffa500; fill-opacity: 0.1; stroke: #ffa500"/>
    </g>
   </g>
   <g id="PolyCollection_5">
    <defs>
     <path id="m6400c1b9ee" d="M 199.832701 -47.617896 
L 199.832701 -47.52 
L 201.284394 -47.52 
L 202.736086 -47.52 
L 204.187779 -47.52 
L 205.639472 -47.52 
L 207.091165 -47.52 
L 208.542857 -47.52 
L 209.99455 -47.52 
L 211.446243 -47.52 
L 212.897935 -47.52 
L 214.349628 -47.52 
L 215.801321 -47.52 
L 217.253014 -47.52 
L 218.704706 -47.52 
L 220.156399 -47.52 
L 221.608092 -47.52 
L 223.059785 -47.52 
L 224.511477 -47.52 
L 225.96317 -47.52 
L 227.414863 -47.52 
L 228.866556 -47.52 
L 230.318248 -47.52 
L 231.769941 -47.52 
L 233.221634 -47.52 
L 234.673326 -47.52 
L 236.125019 -47.52 
L 237.576712 -47.52 
L 239.028405 -47.52 
L 240.480097 -47.52 
L 241.93179 -47.52 
L 243.383483 -47.52 
L 244.835176 -47.52 
L 246.286868 -47.52 
L 247.738561 -47.52 
L 249.190254 -47.52 
L 250.641947 -47.52 
L 252.093639 -47.52 
L 253.545332 -47.52 
L 254.997025 -47.52 
L 256.448717 -47.52 
L 257.90041 -47.52 
L 259.352103 -47.52 
L 260.803796 -47.52 
L 262.255488 -47.52 
L 263.707181 -47.52 
L 265.158874 -47.52 
L 266.610567 -47.52 
L 268.062259 -47.52 
L 269.513952 -47.52 
L 270.965645 -47.52 
L 272.417337 -47.52 
L 273.86903 -47.52 
L 275.320723 -47.52 
L 276.772416 -47.52 
L 278.224108 -47.52 
L 279.675801 -47.52 
L 281.127494 -47.52 
L 282.579187 -47.52 
L 284.030879 -47.52 
L 285.482572 -47.52 
L 286.934265 -47.52 
L 288.385958 -47.52 
L 289.83765 -47.52 
L 291.289343 -47.52 
L 292.741036 -47.52 
L 294.192728 -47.52 
L 295.644421 -47.52 
L 297.096114 -47.52 
L 298.547807 -47.52 
L 299.999499 -47.52 
L 301.451192 -47.52 
L 302.902885 -47.52 
L 304.354578 -47.52 
L 305.80627 -47.52 
L 307.257963 -47.52 
L 308.709656 -47.52 
L 310.161349 -47.52 
L 311.613041 -47.52 
L 313.064734 -47.52 
L 314.516427 -47.52 
L 315.968119 -47.52 
L 317.419812 -47.52 
L 318.871505 -47.52 
L 320.323198 -47.52 
L 321.77489 -47.52 
L 323.226583 -47.52 
L 324.678276 -47.52 
L 326.129969 -47.52 
L 327.581661 -47.52 
L 329.033354 -47.52 
L 330.485047 -47.52 
L 331.936739 -47.52 
L 333.388432 -47.52 
L 334.840125 -47.52 
L 336.291818 -47.52 
L 337.74351 -47.52 
L 339.195203 -47.52 
L 340.646896 -47.52 
L 342.098589 -47.52 
L 343.550281 -47.52 
L 345.001974 -47.52 
L 346.453667 -47.52 
L 347.90536 -47.52 
L 349.357052 -47.52 
L 350.808745 -47.52 
L 352.260438 -47.52 
L 353.71213 -47.52 
L 355.163823 -47.52 
L 356.615516 -47.52 
L 358.067209 -47.52 
L 359.518901 -47.52 
L 360.970594 -47.52 
L 362.422287 -47.52 
L 363.87398 -47.52 
L 365.325672 -47.52 
L 366.777365 -47.52 
L 368.229058 -47.52 
L 369.680751 -47.52 
L 371.132443 -47.52 
L 372.584136 -47.52 
L 374.035829 -47.52 
L 375.487521 -47.52 
L 376.939214 -47.52 
L 378.390907 -47.52 
L 379.8426 -47.52 
L 381.294292 -47.52 
L 382.745985 -47.52 
L 384.197678 -47.52 
L 385.649371 -47.52 
L 387.101063 -47.52 
L 388.552756 -47.52 
L 390.004449 -47.52 
L 391.456142 -47.52 
L 392.907834 -47.52 
L 394.359527 -47.52 
L 395.81122 -47.52 
L 397.262912 -47.52 
L 398.714605 -47.52 
L 400.166298 -47.52 
L 401.617991 -47.52 
L 403.069683 -47.52 
L 404.521376 -47.52 
L 405.973069 -47.52 
L 407.424762 -47.52 
L 408.876454 -47.52 
L 410.328147 -47.52 
L 411.77984 -47.52 
L 413.231532 -47.52 
L 414.683225 -47.52 
L 416.134918 -47.52 
L 417.586611 -47.52 
L 419.038303 -47.52 
L 420.489996 -47.52 
L 421.941689 -47.52 
L 423.393382 -47.52 
L 424.845074 -47.52 
L 426.296767 -47.52 
L 427.74846 -47.52 
L 429.200153 -47.52 
L 430.651845 -47.52 
L 432.103538 -47.52 
L 433.555231 -47.52 
L 435.006923 -47.52 
L 436.458616 -47.52 
L 437.910309 -47.52 
L 439.362002 -47.52 
L 440.813694 -47.52 
L 442.265387 -47.52 
L 443.71708 -47.52 
L 445.168773 -47.52 
L 446.620465 -47.52 
L 448.072158 -47.52 
L 449.523851 -47.52 
L 450.975544 -47.52 
L 452.427236 -47.52 
L 453.878929 -47.52 
L 455.330622 -47.52 
L 456.782314 -47.52 
L 458.234007 -47.52 
L 459.6857 -47.52 
L 461.137393 -47.52 
L 462.589085 -47.52 
L 464.040778 -47.52 
L 465.492471 -47.52 
L 466.944164 -47.52 
L 468.395856 -47.52 
L 469.847549 -47.52 
L 471.299242 -47.52 
L 472.750934 -47.52 
L 474.202627 -47.52 
L 475.65432 -47.52 
L 477.106013 -47.52 
L 478.557705 -47.52 
L 480.009398 -47.52 
L 481.461091 -47.52 
L 482.912784 -47.52 
L 484.364476 -47.52 
L 485.816169 -47.52 
L 487.267862 -47.52 
L 488.719555 -47.52 
L 488.719555 -47.589378 
L 488.719555 -47.589378 
L 487.267862 -47.617431 
L 485.816169 -47.655439 
L 484.364476 -47.706373 
L 482.912784 -47.77389 
L 481.461091 -47.862428 
L 480.009398 -47.977289 
L 478.557705 -48.124712 
L 477.106013 -48.311935 
L 475.65432 -48.547215 
L 474.202627 -48.839829 
L 472.750934 -49.200025 
L 471.299242 -49.638941 
L 469.847549 -50.168469 
L 468.395856 -50.801088 
L 466.944164 -51.54965 
L 465.492471 -52.427143 
L 464.040778 -53.44644 
L 462.589085 -54.620037 
L 461.137393 -55.95981 
L 459.6857 -57.476793 
L 458.234007 -59.180999 
L 456.782314 -61.081285 
L 455.330622 -63.18527 
L 453.878929 -65.499301 
L 452.427236 -68.028459 
L 450.975544 -70.776595 
L 449.523851 -73.746375 
L 448.072158 -76.939311 
L 446.620465 -80.355765 
L 445.168773 -83.994902 
L 443.71708 -87.854584 
L 442.265387 -91.931197 
L 440.813694 -96.21942 
L 439.362002 -100.711952 
L 437.910309 -105.399212 
L 436.458616 -110.269058 
L 435.006923 -115.306557 
L 433.555231 -120.493837 
L 432.103538 -125.810078 
L 430.651845 -131.231662 
L 429.200153 -136.732506 
L 427.74846 -142.284592 
L 426.296767 -147.858688 
L 424.845074 -153.425249 
L 423.393382 -158.95544 
L 421.941689 -164.422262 
L 420.489996 -169.801697 
L 419.038303 -175.073807 
L 417.586611 -180.223733 
L 416.134918 -185.242486 
L 414.683225 -190.127507 
L 413.231532 -194.882899 
L 411.77984 -199.519322 
L 410.328147 -204.053511 
L 408.876454 -208.507407 
L 407.424762 -212.906942 
L 405.973069 -217.280496 
L 404.521376 -221.657105 
L 403.069683 -226.06449 
L 401.617991 -230.527024 
L 400.166298 -235.063735 
L 398.714605 -239.686476 
L 397.262912 -244.39838 
L 395.81122 -249.192718 
L 394.359527 -254.052251 
L 392.907834 -258.949164 
L 391.456142 -263.845616 
L 390.004449 -268.694915 
L 388.552756 -273.443284 
L 387.101063 -278.032145 
L 385.649371 -282.400792 
L 384.197678 -286.489315 
L 382.745985 -290.241595 
L 381.294292 -293.608179 
L 379.8426 -296.548856 
L 378.390907 -299.034773 
L 376.939214 -301.049937 
L 375.487521 -302.592019 
L 374.035829 -303.672414 
L 372.584136 -304.315556 
L 371.132443 -304.557543 
L 369.680751 -304.444171 
L 368.229058 -304.02851 
L 366.777365 -303.368179 
L 365.325672 -302.522468 
L 363.87398 -301.549484 
L 362.422287 -300.503449 
L 360.970594 -299.432277 
L 359.518901 -298.375526 
L 358.067209 -297.362777 
L 356.615516 -296.412499 
L 355.163823 -295.531395 
L 353.71213 -294.714247 
L 352.260438 -293.944234 
L 350.808745 -293.193699 
L 349.357052 -292.425344 
L 347.90536 -291.593807 
L 346.453667 -290.647574 
L 345.001974 -289.531171 
L 343.550281 -288.187563 
L 342.098589 -286.560679 
L 340.646896 -284.597962 
L 339.195203 -282.252838 
L 337.74351 -279.48699 
L 336.291818 -276.272325 
L 334.840125 -272.592536 
L 333.388432 -268.444168 
L 331.936739 -263.837137 
L 330.485047 -258.794662 
L 329.033354 -253.352622 
L 327.581661 -247.558369 
L 326.129969 -241.469068 
L 324.678276 -235.149644 
L 323.226583 -228.670453 
L 321.77489 -222.104791 
L 320.323198 -215.526368 
L 318.871505 -209.006845 
L 317.419812 -202.613567 
L 315.968119 -196.407552 
L 314.516427 -190.441835 
L 313.064734 -184.7602 
L 311.613041 -179.39634 
L 310.161349 -174.373451 
L 308.709656 -169.704265 
L 307.257963 -165.391462 
L 305.80627 -161.42846 
L 304.354578 -157.800481 
L 302.902885 -154.485856 
L 301.451192 -151.457476 
L 299.999499 -148.684315 
L 298.547807 -146.132948 
L 297.096114 -143.768996 
L 295.644421 -141.558436 
L 294.192728 -139.468735 
L 292.741036 -137.469777 
L 291.289343 -135.534576 
L 289.83765 -133.639772 
L 288.385958 -131.765929 
L 286.934265 -129.897664 
L 285.482572 -128.023636 
L 284.030879 -126.136416 
L 282.579187 -124.232283 
L 281.127494 -122.310949 
L 279.675801 -120.375235 
L 278.224108 -118.430697 
L 276.772416 -116.485199 
L 275.320723 -114.548434 
L 273.86903 -112.631367 
L 272.417337 -110.745618 
L 270.965645 -108.902771 
L 269.513952 -107.113636 
L 268.062259 -105.387483 
L 266.610567 -103.731288 
L 265.158874 -102.149044 
L 263.707181 -100.641185 
L 262.255488 -99.204187 
L 260.803796 -97.830391 
L 259.352103 -96.508085 
L 257.90041 -95.221881 
L 256.448717 -93.953365 
L 254.997025 -92.682021 
L 253.545332 -91.386357 
L 252.093639 -90.045182 
L 250.641947 -88.638929 
L 249.190254 -87.150954 
L 247.738561 -85.56868 
L 246.286868 -83.884531 
L 244.835176 -82.096557 
L 243.383483 -80.208715 
L 241.93179 -78.230782 
L 240.480097 -76.177905 
L 239.028405 -74.069828 
L 237.576712 -71.929855 
L 236.125019 -69.783627 
L 234.673326 -67.657817 
L 233.221634 -65.578812 
L 231.769941 -63.5715 
L 230.318248 -61.658203 
L 228.866556 -59.857844 
L 227.414863 -58.185364 
L 225.96317 -56.651402 
L 224.511477 -55.262245 
L 223.059785 -54.019998 
L 221.608092 -52.922963 
L 220.156399 -51.966151 
L 218.704706 -51.141892 
L 217.253014 -50.440489 
L 215.801321 -49.850868 
L 214.349628 -49.361189 
L 212.897935 -48.959384 
L 211.446243 -48.633612 
L 209.99455 -48.372616 
L 208.542857 -48.165983 
L 207.091165 -48.004309 
L 205.639472 -47.879291 
L 204.187779 -47.783744 
L 202.736086 -47.711567 
L 201.284394 -47.657673 
L 199.832701 -47.617896 
z
" style="stroke: #000000"/>
    </defs>
    <g clip-path="url(#p59b8efb80a)">
     <use xlink:href="#m6400c1b9ee" x="0" y="432" style="fill-opacity: 0.1; stroke: #000000"/>
    </g>
   </g>
   <g id="patch_3">
    <path d="M 72 384.48 
L 72 51.84 
" style="fill: none; stroke: #262626; stroke-width: 1.25; stroke-linejoin: miter; stroke-linecap: square"/>
   </g>
   <g id="patch_4">
    <path d="M 72 384.48 
L 518.4 384.48 
" style="fill: none; stroke: #262626; stroke-width: 1.25; stroke-linejoin: miter; stroke-linecap: square"/>
   </g>
   <g id="legend_1">
    <g id="patch_5">
     <path d="M 396.026719 138.707344 
L 510.7 138.707344 
Q 512.9 138.707344 512.9 136.507344 
L 512.9 59.54 
Q 512.9 57.34 510.7 57.34 
L 396.026719 57.34 
Q 393.826719 57.34 393.826719 59.54 
L 393.826719 136.507344 
Q 393.826719 138.707344 396.026719 138.707344 
z
" style="fill: #ffffff; opacity: 0.8; stroke: #cccccc; stroke-linejoin: miter"/>
    </g>
    <g id="patch_6">
     <path d="M 398.226719 69.613594 
L 420.226719 69.613594 
L 420.226719 61.913594 
L 398.226719 61.913594 
z
" style="fill: #ff0000; stroke: #ffffff; stroke-linejoin: miter"/>
    </g>
    <g id="text_18">
     <!-- PPMI_PD -->
     <g style="fill: #262626" transform="translate(429.026719 69.613594)scale(0.11 -0.11)">
      <defs>
       <path id="ArialMT-50" d="M 494 0 
L 494 4581 
L 2222 4581 
Q 2678 4581 2919 4538 
Q 3256 4481 3484 4323 
Q 3713 4166 3852 3881 
Q 3991 3597 3991 3256 
Q 3991 2672 3619 2267 
Q 3247 1863 2275 1863 
L 1100 1863 
L 1100 0 
L 494 0 
z
M 1100 2403 
L 2284 2403 
Q 2872 2403 3119 2622 
Q 3366 2841 3366 3238 
Q 3366 3525 3220 3729 
Q 3075 3934 2838 4000 
Q 2684 4041 2272 4041 
L 1100 4041 
L 1100 2403 
z
" transform="scale(0.015625)"/>
       <path id="ArialMT-4d" d="M 475 0 
L 475 4581 
L 1388 4581 
L 2472 1338 
Q 2622 884 2691 659 
Q 2769 909 2934 1394 
L 4031 4581 
L 4847 4581 
L 4847 0 
L 4263 0 
L 4263 3834 
L 2931 0 
L 2384 0 
L 1059 3900 
L 1059 0 
L 475 0 
z
" transform="scale(0.015625)"/>
       <path id="ArialMT-49" d="M 597 0 
L 597 4581 
L 1203 4581 
L 1203 0 
L 597 0 
z
" transform="scale(0.015625)"/>
       <path id="ArialMT-5f" d="M -97 -1272 
L -97 -866 
L 3631 -866 
L 3631 -1272 
L -97 -1272 
z
" transform="scale(0.015625)"/>
      </defs>
      <use xlink:href="#ArialMT-50"/>
      <use xlink:href="#ArialMT-50" x="66.699219"/>
      <use xlink:href="#ArialMT-4d" x="133.398438"/>
      <use xlink:href="#ArialMT-49" x="216.699219"/>
      <use xlink:href="#ArialMT-5f" x="244.482422"/>
      <use xlink:href="#ArialMT-50" x="300.097656"/>
      <use xlink:href="#ArialMT-44" x="366.796875"/>
     </g>
    </g>
    <g id="patch_7">
     <path d="M 398.226719 85.3075 
L 420.226719 85.3075 
L 420.226719 77.6075 
L 398.226719 77.6075 
z
" style="fill: #008000; stroke: #ffffff; stroke-linejoin: miter"/>
    </g>
    <g id="text_19">
     <!-- PPMI_Control -->
     <g style="fill: #262626" transform="translate(429.026719 85.3075)scale(0.11 -0.11)">
      <defs>
       <path id="ArialMT-43" d="M 3763 1606 
L 4369 1453 
Q 4178 706 3683 314 
Q 3188 -78 2472 -78 
Q 1731 -78 1267 223 
Q 803 525 561 1097 
Q 319 1669 319 2325 
Q 319 3041 592 3573 
Q 866 4106 1370 4382 
Q 1875 4659 2481 4659 
Q 3169 4659 3637 4309 
Q 4106 3959 4291 3325 
L 3694 3184 
Q 3534 3684 3231 3912 
Q 2928 4141 2469 4141 
Q 1941 4141 1586 3887 
Q 1231 3634 1087 3207 
Q 944 2781 944 2328 
Q 944 1744 1114 1308 
Q 1284 872 1643 656 
Q 2003 441 2422 441 
Q 2931 441 3284 734 
Q 3638 1028 3763 1606 
z
" transform="scale(0.015625)"/>
       <path id="ArialMT-6f" d="M 213 1659 
Q 213 2581 725 3025 
Q 1153 3394 1769 3394 
Q 2453 3394 2887 2945 
Q 3322 2497 3322 1706 
Q 3322 1066 3130 698 
Q 2938 331 2570 128 
Q 2203 -75 1769 -75 
Q 1072 -75 642 372 
Q 213 819 213 1659 
z
M 791 1659 
Q 791 1022 1069 705 
Q 1347 388 1769 388 
Q 2188 388 2466 706 
Q 2744 1025 2744 1678 
Q 2744 2294 2464 2611 
Q 2184 2928 1769 2928 
Q 1347 2928 1069 2612 
Q 791 2297 791 1659 
z
" transform="scale(0.015625)"/>
       <path id="ArialMT-72" d="M 416 0 
L 416 3319 
L 922 3319 
L 922 2816 
Q 1116 3169 1280 3281 
Q 1444 3394 1641 3394 
Q 1925 3394 2219 3213 
L 2025 2691 
Q 1819 2813 1613 2813 
Q 1428 2813 1281 2702 
Q 1134 2591 1072 2394 
Q 978 2094 978 1738 
L 978 0 
L 416 0 
z
" transform="scale(0.015625)"/>
       <path id="ArialMT-6c" d="M 409 0 
L 409 4581 
L 972 4581 
L 972 0 
L 409 0 
z
" transform="scale(0.015625)"/>
      </defs>
      <use xlink:href="#ArialMT-50"/>
      <use xlink:href="#ArialMT-50" x="66.699219"/>
      <use xlink:href="#ArialMT-4d" x="133.398438"/>
      <use xlink:href="#ArialMT-49" x="216.699219"/>
      <use xlink:href="#ArialMT-5f" x="244.482422"/>
      <use xlink:href="#ArialMT-43" x="300.097656"/>
      <use xlink:href="#ArialMT-6f" x="372.314453"/>
      <use xlink:href="#ArialMT-6e" x="427.929688"/>
      <use xlink:href="#ArialMT-74" x="483.544922"/>
      <use xlink:href="#ArialMT-72" x="511.328125"/>
      <use xlink:href="#ArialMT-6f" x="544.628906"/>
      <use xlink:href="#ArialMT-6c" x="600.244141"/>
     </g>
    </g>
    <g id="patch_8">
     <path d="M 398.226719 100.867344 
L 420.226719 100.867344 
L 420.226719 93.167344 
L 398.226719 93.167344 
z
" style="fill: #0000ff; stroke: #ffffff; stroke-linejoin: miter"/>
    </g>
    <g id="text_20">
     <!-- UKB -->
     <g style="fill: #262626" transform="translate(429.026719 100.867344)scale(0.11 -0.11)">
      <defs>
       <path id="ArialMT-55" d="M 3500 4581 
L 4106 4581 
L 4106 1934 
Q 4106 1244 3950 837 
Q 3794 431 3386 176 
Q 2978 -78 2316 -78 
Q 1672 -78 1262 144 
Q 853 366 678 786 
Q 503 1206 503 1934 
L 503 4581 
L 1109 4581 
L 1109 1938 
Q 1109 1341 1220 1058 
Q 1331 775 1601 622 
Q 1872 469 2263 469 
Q 2931 469 3215 772 
Q 3500 1075 3500 1938 
L 3500 4581 
z
" transform="scale(0.015625)"/>
       <path id="ArialMT-4b" d="M 469 0 
L 469 4581 
L 1075 4581 
L 1075 2309 
L 3350 4581 
L 4172 4581 
L 2250 2725 
L 4256 0 
L 3456 0 
L 1825 2319 
L 1075 1588 
L 1075 0 
L 469 0 
z
" transform="scale(0.015625)"/>
       <path id="ArialMT-42" d="M 469 0 
L 469 4581 
L 2188 4581 
Q 2713 4581 3030 4442 
Q 3347 4303 3526 4014 
Q 3706 3725 3706 3409 
Q 3706 3116 3547 2856 
Q 3388 2597 3066 2438 
Q 3481 2316 3704 2022 
Q 3928 1728 3928 1328 
Q 3928 1006 3792 729 
Q 3656 453 3456 303 
Q 3256 153 2954 76 
Q 2653 0 2216 0 
L 469 0 
z
M 1075 2656 
L 2066 2656 
Q 2469 2656 2644 2709 
Q 2875 2778 2992 2937 
Q 3109 3097 3109 3338 
Q 3109 3566 3000 3739 
Q 2891 3913 2687 3977 
Q 2484 4041 1991 4041 
L 1075 4041 
L 1075 2656 
z
M 1075 541 
L 2216 541 
Q 2509 541 2628 563 
Q 2838 600 2978 687 
Q 3119 775 3209 942 
Q 3300 1109 3300 1328 
Q 3300 1584 3169 1773 
Q 3038 1963 2805 2039 
Q 2572 2116 2134 2116 
L 1075 2116 
L 1075 541 
z
" transform="scale(0.015625)"/>
      </defs>
      <use xlink:href="#ArialMT-55"/>
      <use xlink:href="#ArialMT-4b" x="72.216797"/>
      <use xlink:href="#ArialMT-42" x="138.916016"/>
     </g>
    </g>
    <g id="patch_9">
     <path d="M 398.226719 116.56125 
L 420.226719 116.56125 
L 420.226719 108.86125 
L 398.226719 108.86125 
z
" style="fill: #ffa500; stroke: #ffffff; stroke-linejoin: miter"/>
    </g>
    <g id="text_21">
     <!-- ADNI_Control -->
     <g style="fill: #262626" transform="translate(429.026719 116.56125)scale(0.11 -0.11)">
      <defs>
       <path id="ArialMT-41" d="M -9 0 
L 1750 4581 
L 2403 4581 
L 4278 0 
L 3588 0 
L 3053 1388 
L 1138 1388 
L 634 0 
L -9 0 
z
M 1313 1881 
L 2866 1881 
L 2388 3150 
Q 2169 3728 2063 4100 
Q 1975 3659 1816 3225 
L 1313 1881 
z
" transform="scale(0.015625)"/>
       <path id="ArialMT-4e" d="M 488 0 
L 488 4581 
L 1109 4581 
L 3516 984 
L 3516 4581 
L 4097 4581 
L 4097 0 
L 3475 0 
L 1069 3600 
L 1069 0 
L 488 0 
z
" transform="scale(0.015625)"/>
      </defs>
      <use xlink:href="#ArialMT-41"/>
      <use xlink:href="#ArialMT-44" x="66.699219"/>
      <use xlink:href="#ArialMT-4e" x="138.916016"/>
      <use xlink:href="#ArialMT-49" x="211.132812"/>
      <use xlink:href="#ArialMT-5f" x="238.916016"/>
      <use xlink:href="#ArialMT-43" x="294.53125"/>
      <use xlink:href="#ArialMT-6f" x="366.748047"/>
      <use xlink:href="#ArialMT-6e" x="422.363281"/>
      <use xlink:href="#ArialMT-74" x="477.978516"/>
      <use xlink:href="#ArialMT-72" x="505.761719"/>
      <use xlink:href="#ArialMT-6f" x="539.0625"/>
      <use xlink:href="#ArialMT-6c" x="594.677734"/>
     </g>
    </g>
    <g id="patch_10">
     <path d="M 398.226719 132.121094 
L 420.226719 132.121094 
L 420.226719 124.421094 
L 398.226719 124.421094 
z
" style="stroke: #ffffff; stroke-linejoin: miter"/>
    </g>
    <g id="text_22">
     <!-- ADNI_Dementia -->
     <g style="fill: #262626" transform="translate(429.026719 132.121094)scale(0.11 -0.11)">
      <defs>
       <path id="ArialMT-6d" d="M 422 0 
L 422 3319 
L 925 3319 
L 925 2853 
Q 1081 3097 1340 3245 
Q 1600 3394 1931 3394 
Q 2300 3394 2536 3241 
Q 2772 3088 2869 2813 
Q 3263 3394 3894 3394 
Q 4388 3394 4653 3120 
Q 4919 2847 4919 2278 
L 4919 0 
L 4359 0 
L 4359 2091 
Q 4359 2428 4304 2576 
Q 4250 2725 4106 2815 
Q 3963 2906 3769 2906 
Q 3419 2906 3187 2673 
Q 2956 2441 2956 1928 
L 2956 0 
L 2394 0 
L 2394 2156 
Q 2394 2531 2256 2718 
Q 2119 2906 1806 2906 
Q 1569 2906 1367 2781 
Q 1166 2656 1075 2415 
Q 984 2175 984 1722 
L 984 0 
L 422 0 
z
" transform="scale(0.015625)"/>
      </defs>
      <use xlink:href="#ArialMT-41"/>
      <use xlink:href="#ArialMT-44" x="66.699219"/>
      <use xlink:href="#ArialMT-4e" x="138.916016"/>
      <use xlink:href="#ArialMT-49" x="211.132812"/>
      <use xlink:href="#ArialMT-5f" x="238.916016"/>
      <use xlink:href="#ArialMT-44" x="294.53125"/>
      <use xlink:href="#ArialMT-65" x="366.748047"/>
      <use xlink:href="#ArialMT-6d" x="422.363281"/>
      <use xlink:href="#ArialMT-65" x="505.664062"/>
      <use xlink:href="#ArialMT-6e" x="561.279297"/>
      <use xlink:href="#ArialMT-74" x="616.894531"/>
      <use xlink:href="#ArialMT-69" x="644.677734"/>
      <use xlink:href="#ArialMT-61" x="666.894531"/>
     </g>
    </g>
   </g>
  </g>
 </g>
 <defs>
  <clipPath id="p59b8efb80a">
   <rect x="72" y="51.84" width="446.4" height="332.64"/>
  </clipPath>
 </defs>
</svg>
